<svg width="730" height="490" viewBox="0 0 730 490" fill="none" xmlns="http://www.w3.org/2000/svg">
<path opacity="0.5" d="M74.6463 136.388C74.6463 136.388 63.3157 140.703 75.7296 164.946C88.1425 189.19 96.7264 201.185 96.7264 201.185C96.7264 201.185 98.9329 206.816 94.2122 207.707C89.4925 208.599 79.0866 206.967 77.0008 212.782C74.839 218.814 79.2122 224.48 88.0569 229.435C96.9025 234.389 115.885 245.959 117.598 247.01C119.278 248.044 120.97 250.662 117.852 251.788C114.733 252.913 91.3477 255.446 93.2078 266.523C95.0678 277.602 121.966 287.336 124.887 288.456C127.807 289.578 128.508 290.817 128.276 292.427C128.043 294.036 120.103 294.143 113.481 295.136C106.86 296.13 99.3544 298.45 100.961 304.751C102.567 311.052 118.525 324.247 157.179 327.921L175.201 328.446L184.956 313.114C203.843 279.029 202.061 258.34 197.804 253.441C193.547 248.541 187.393 253.441 182.826 258.36C178.26 263.279 173.673 269.793 172.222 269.074C170.771 268.355 170.152 267.071 170.887 264.019C171.622 260.965 178.879 233.18 170.848 225.363C162.817 217.546 147.491 235.475 144.8 237.419C142.111 239.363 140.923 236.48 141.027 234.503C141.135 232.488 142.4 210.217 143.348 200.086C144.297 189.956 142.127 183.125 135.957 181.498C130.006 179.929 125.448 189.47 122.043 192.872C118.637 196.276 115.269 191.259 115.269 191.259C115.269 191.259 110.296 177.356 97.4457 153.343C84.5967 129.33 74.4234 136.491 74.4234 136.491" fill="#00B45A"/>
<path d="M176.149 332.701C166.78 315.028 150.656 283.336 136.671 256.199C122.691 229.072 110.012 204.522 100.734 186.803C96.0931 177.964 92.335 170.804 89.7245 165.831C88.4349 163.37 87.4304 161.451 86.7354 160.125C86.4074 159.486 86.1534 158.99 85.9704 158.635C85.801 158.298 85.7271 158.118 85.7271 158.118C85.7271 158.118 85.8341 158.279 86.02 158.608C86.2147 158.957 86.4853 159.444 86.8347 160.072C87.5501 161.386 88.5877 163.288 89.9163 165.727C92.5881 170.641 96.4035 177.779 101.083 186.617C110.452 204.29 123.189 228.813 137.169 255.941C151.154 283.078 167.221 314.796 176.499 332.516" fill="#E1E1E1"/>
<path d="M91.4673 215.654C91.4809 215.618 91.9277 215.743 92.7249 216.001C93.5249 216.256 94.6686 216.659 96.078 217.17C98.8939 218.198 102.747 219.715 106.97 221.468C111.127 223.212 114.886 224.788 117.762 225.995C119.061 226.53 120.157 226.982 121.038 227.345C121.814 227.661 122.237 227.852 122.225 227.89C122.212 227.926 121.764 227.803 120.964 227.551C120.165 227.293 119.02 226.891 117.616 226.365C114.81 225.31 110.977 223.741 106.756 221.988C102.589 220.276 98.8199 218.727 95.9359 217.541C94.6326 217.012 93.5347 216.566 92.6499 216.207C91.8761 215.886 91.4547 215.691 91.4673 215.654Z" fill="#E1E1E1"/>
<path d="M123.452 226.728C123.307 226.675 126.072 218.554 129.629 208.592C133.186 198.627 136.186 190.592 136.332 190.645C136.478 190.698 133.713 198.816 130.156 208.782C126.599 218.744 123.597 226.78 123.452 226.728Z" fill="#E1E1E1"/>
<path d="M143.055 269.366C143.025 269.342 143.286 268.943 143.783 268.245C144.353 267.457 145.064 266.472 145.908 265.303C147.699 262.817 150.157 259.373 152.73 255.473C155.313 251.578 157.529 247.97 159.111 245.346C159.858 244.112 160.487 243.072 160.99 242.239C161.437 241.507 161.701 241.111 161.734 241.13C161.768 241.149 161.569 241.581 161.18 242.347C160.789 243.112 160.205 244.209 159.453 245.548C157.955 248.227 155.786 251.877 153.196 255.784C150.615 259.695 148.099 263.112 146.225 265.542C145.283 266.753 144.509 267.724 143.955 268.379C143.405 269.037 143.085 269.389 143.055 269.366Z" fill="#E1E1E1"/>
<path d="M111.93 265.748C111.933 265.71 112.372 265.718 113.161 265.766C114.068 265.835 115.182 265.919 116.497 266.019C119.311 266.259 123.194 266.627 127.481 267.071C131.767 267.513 135.646 267.945 138.45 268.286C139.757 268.456 140.865 268.6 141.768 268.718C142.549 268.833 142.98 268.914 142.975 268.953C142.972 268.991 142.534 268.984 141.745 268.936C140.838 268.866 139.723 268.782 138.41 268.681C135.595 268.442 131.711 268.073 127.423 267.631C123.138 267.188 119.26 266.756 116.456 266.416C115.149 266.246 114.04 266.1 113.139 265.983C112.356 265.868 111.926 265.787 111.93 265.748Z" fill="#E1E1E1"/>
<path d="M124.475 305.6C124.479 305.561 125.04 305.576 126.051 305.637C127.164 305.718 128.602 305.823 130.327 305.947C133.935 306.233 138.916 306.668 144.415 307.182C149.915 307.697 154.892 308.193 158.49 308.582C160.209 308.778 161.64 308.942 162.75 309.07C163.754 309.198 164.308 309.287 164.305 309.326C164.301 309.364 163.74 309.348 162.73 309.288C161.616 309.207 160.179 309.103 158.454 308.978C154.845 308.691 149.864 308.257 144.363 307.742C138.865 307.228 133.889 306.731 130.29 306.344C128.571 306.146 127.14 305.983 126.03 305.856C125.025 305.728 124.472 305.638 124.475 305.6Z" fill="#E1E1E1"/>
<path d="M163.378 308.966C163.346 308.945 163.664 308.431 164.264 307.524C164.924 306.537 165.787 305.248 166.825 303.696C168.983 300.461 171.947 295.983 175.079 290.947C178.22 285.913 180.943 281.282 182.891 277.916C183.828 276.3 184.606 274.959 185.202 273.931C185.752 272.991 186.071 272.481 186.106 272.5C186.14 272.518 185.884 273.064 185.393 274.036C184.902 275.008 184.17 276.404 183.236 278.111C181.374 281.531 178.7 286.203 175.553 291.245C172.416 296.29 169.395 300.742 167.15 303.922C166.024 305.509 165.1 306.784 164.442 307.65C163.786 308.519 163.409 308.989 163.378 308.966Z" fill="#E1E1E1"/>
<path opacity="0.5" d="M509.74 365.798C483.774 348.752 476.984 315.819 477.067 286.02C477.08 281.046 476.375 275.824 478.593 271.391C480.811 266.959 486.207 263.808 490.7 265.764C494.426 267.385 496.158 271.628 498.324 275.112C501.203 279.751 505.395 283.532 510.265 285.88C513.465 287.423 517.392 288.307 520.447 286.487C524.64 283.989 524.959 278.051 524.775 273.11C524.433 263.902 524.091 254.693 523.748 245.484C523.565 240.544 523.393 235.499 524.778 230.76C526.162 226.023 529.407 221.56 534.045 220.097C538.684 218.634 544.553 221.163 545.691 225.97C546.165 227.97 545.821 230.073 546.021 232.119C546.221 234.166 547.243 236.406 549.199 236.917C551.181 237.435 553.105 235.972 554.531 234.48C559.452 229.331 562.698 222.796 565.72 216.303C568.741 209.809 571.663 203.168 576.101 197.582C580.538 191.996 586.776 187.484 593.807 186.863C600.839 186.242 608.478 190.376 610.473 197.268C612.475 204.179 608.647 211.374 604.42 217.151C598.149 225.722 590.652 233.364 582.24 239.759C580.724 240.913 579.081 242.161 578.544 244.009C577.578 247.337 580.787 250.512 584.058 251.494C587.762 252.607 591.727 252.099 595.577 252.434C599.426 252.767 603.633 254.337 605.196 257.933C607.367 262.922 603.326 268.347 599.298 271.944C591.229 279.147 581.939 284.929 571.964 288.958C568.387 290.401 564.616 291.688 561.778 294.333C558.938 296.979 557.316 301.474 559.186 304.899C561.057 308.33 565.615 309.302 569.383 308.477C573.15 307.653 576.479 305.479 580.048 303.998C586.728 301.223 595.47 301.418 599.982 307.152C602.947 310.922 603.363 316.285 602.066 320.93C600.77 325.573 597.974 329.626 594.989 333.377C584.551 346.485 571.001 357.199 555.491 363.152C539.982 369.105 525.499 371.037 509.74 365.798Z" fill="#00B45A"/>
<path d="M516.81 346.899C520.706 331.74 526.346 315.48 532.827 298.677C534.464 294.484 536.08 290.339 537.673 286.254C539.272 282.18 540.857 278.139 542.652 274.285C546.208 266.558 550.212 259.4 554.225 252.726C558.237 246.047 562.286 239.855 566.113 234.095C569.955 228.34 573.636 223.044 577.196 218.361C584.29 208.963 590.892 202.079 595.615 197.539C597.974 195.26 599.859 193.553 601.154 192.413C601.777 191.872 602.266 191.445 602.634 191.126C602.971 190.841 603.148 190.7 603.159 190.712C603.17 190.724 603.013 190.888 602.695 191.196C602.343 191.533 601.873 191.981 601.276 192.551C600.023 193.735 598.176 195.483 595.859 197.797C591.217 202.41 584.712 209.339 577.704 218.757C574.185 223.451 570.543 228.757 566.736 234.522C562.938 240.297 558.919 246.494 554.936 253.167C550.953 259.837 546.98 266.977 543.455 274.667C541.676 278.503 540.109 282.51 538.508 286.595C536.916 290.677 535.304 294.821 533.669 299.013C527.194 315.803 521.543 332.014 517.614 347.117" fill="#E1E1E1"/>
<path d="M542.909 274.241C542.849 274.254 542.658 273.508 542.363 272.148C542.063 270.792 541.693 268.813 541.27 266.362C540.424 261.464 539.482 254.66 538.473 247.152C537.464 239.641 536.43 232.87 535.51 227.997C535.058 225.56 534.671 223.59 534.386 222.234C534.11 220.874 533.984 220.113 534.045 220.097C534.106 220.081 534.345 220.811 534.728 222.149C535.118 223.483 535.601 225.438 536.135 227.867C537.219 232.723 538.359 239.508 539.368 247.026C540.346 254.436 541.228 261.14 541.904 266.262C542.222 268.574 542.494 270.522 542.711 272.086C542.896 273.462 542.972 274.229 542.909 274.241Z" fill="#E1E1E1"/>
<path d="M605.775 260.39C605.779 260.453 604.882 260.586 603.262 260.774C601.644 260.969 599.301 261.239 596.418 261.668C590.646 262.476 582.712 263.875 574.025 265.802C565.339 267.746 557.553 269.841 551.966 271.52C549.164 272.34 546.916 273.064 545.358 273.556C543.803 274.054 542.933 274.3 542.909 274.241C542.889 274.181 543.72 273.82 545.243 273.217C546.769 272.621 548.993 271.801 551.777 270.897C557.332 269.054 565.12 266.852 573.832 264.902C582.544 262.97 590.527 261.668 596.338 261.022C599.24 260.676 601.6 260.502 603.234 260.417C604.866 260.339 605.77 260.327 605.775 260.39Z" fill="#E1E1E1"/>
<path d="M517.552 345.706C517.523 345.72 517.367 345.458 517.093 344.946C516.782 344.333 516.401 343.585 515.942 342.68C514.949 340.709 513.587 337.819 511.952 334.227C508.676 327.044 504.461 316.978 499.961 305.807C495.456 294.633 491.34 284.542 488.218 277.301C486.689 273.781 485.431 270.886 484.495 268.733C484.095 267.799 483.765 267.03 483.496 266.396C483.276 265.858 483.174 265.569 483.203 265.554C483.231 265.541 483.387 265.803 483.661 266.317C483.972 266.929 484.352 267.675 484.813 268.58C485.804 270.55 487.166 273.44 488.802 277.033C492.077 284.216 496.292 294.283 500.795 305.457C505.297 316.629 509.414 326.718 512.536 333.961C514.066 337.48 515.323 340.376 516.258 342.526C516.658 343.46 516.988 344.233 517.258 344.865C517.478 345.403 517.58 345.692 517.552 345.706Z" fill="#E1E1E1"/>
<path d="M600.736 315.868C600.745 315.899 600.461 316.026 599.912 316.24C599.262 316.481 598.464 316.779 597.498 317.139C595.266 317.943 592.254 319.029 588.59 320.349C581.069 323.062 570.726 326.93 559.301 331.218C547.873 335.509 537.483 339.285 529.904 341.842C526.115 343.121 523.039 344.127 520.9 344.776C519.91 345.07 519.094 345.312 518.43 345.511C517.863 345.67 517.56 345.736 517.552 345.706C517.542 345.677 517.826 345.55 518.375 345.333C519.023 345.094 519.821 344.797 520.789 344.437C523.021 343.633 526.031 342.547 529.696 341.226C537.216 338.514 547.561 334.645 558.989 330.355C570.414 326.066 580.803 322.291 588.382 319.733C592.17 318.454 595.246 317.449 597.388 316.798C598.377 316.504 599.191 316.26 599.857 316.064C600.423 315.905 600.725 315.839 600.736 315.868Z" fill="#E1E1E1"/>
<path d="M147.555 95.6091C148.339 89.88 140.293 85.167 134.246 84.677C131.362 84.4433 128.367 84.8873 125.635 83.9308C119.717 81.8574 117.353 74.1743 111.578 71.7273C107.261 69.8975 102.29 71.5259 98.1045 73.6432C93.9191 75.7596 89.7825 78.4237 85.1066 78.7239C81.039 78.9851 76.622 77.4701 73.0626 79.4662C70.4112 80.9547 69.0223 84.0247 66.5772 85.8359C64.1867 87.6081 61.0672 87.9836 58.1005 88.146C55.1328 88.3083 52.0619 88.3377 49.3599 89.5807C46.658 90.8237 44.4232 93.6942 44.9848 96.6262L147.555 95.6091Z" fill="#D3D4D8"/>
<path d="M549.77 148.102C550.581 142.175 542.255 137.298 535.999 136.792C533.016 136.549 529.916 137.008 527.089 136.018C520.966 133.873 518.52 125.924 512.544 123.391C508.077 121.498 502.934 123.184 498.602 125.374C494.271 127.564 489.991 130.32 485.153 130.631C480.944 130.902 476.374 129.334 472.692 131.399C469.947 132.939 468.511 136.116 465.981 137.991C463.507 139.825 460.279 140.213 457.209 140.38C454.14 140.548 450.961 140.58 448.165 141.866C445.37 143.152 443.057 146.121 443.638 149.155L549.77 148.102Z" fill="#F5F5F5"/>
<path d="M674.667 174.124C675.167 170.475 670.04 167.472 666.188 167.16C664.351 167.011 662.442 167.293 660.702 166.684C656.931 165.363 655.425 160.469 651.746 158.909C648.995 157.743 645.828 158.782 643.162 160.129C640.495 161.478 637.86 163.176 634.88 163.366C632.289 163.534 629.474 162.568 627.207 163.84C625.518 164.787 624.633 166.744 623.076 167.897C621.552 169.027 619.565 169.267 617.674 169.369C615.784 169.473 613.827 169.492 612.106 170.284C610.384 171.076 608.96 172.905 609.318 174.773L674.667 174.124Z" fill="#D3D4D8"/>
<path d="M655.933 90.7094C656.843 84.0669 647.514 78.6028 640.503 78.0355C637.16 77.7646 633.687 78.2781 630.52 77.169C623.658 74.7661 620.916 65.8585 614.222 63.0203C609.216 60.899 603.453 62.7876 598.6 65.2414C593.747 67.6961 588.952 70.7837 583.53 71.1328C578.814 71.436 573.692 69.6785 569.567 71.9935C566.491 73.7187 564.881 77.2786 562.047 79.3783C559.274 81.4331 555.658 81.8683 552.218 82.0561C548.779 82.2449 545.217 82.2791 542.085 83.7207C538.952 85.1613 536.361 88.4894 537.011 91.8889L655.933 90.7094Z" fill="#D3D4D8"/>
<path d="M591.203 154.85C578.319 121.847 551.51 95.9982 517.817 85.47C505.245 81.5414 492.064 79.6264 478.885 80.0382C438.434 81.3017 399.309 104.442 378.576 139.366C366.383 159.904 359.552 184.849 340.747 199.51C316.274 218.588 281.482 213.065 251.174 206.638C220.866 200.211 186.035 194.772 161.645 213.96C146.37 225.976 130.857 251.036 125.517 269.776C108.757 328.599 147 380.894 186.424 412.966C226.343 445.439 293.08 440.933 344.431 439.938C416.369 438.546 489.226 412.281 539.435 360.497C587.449 310.979 611.825 237.051 595.997 170.062C594.773 164.882 593.138 159.808 591.203 154.85Z" fill="#B3E9CE"/>
<path d="M272.228 115.1C274.905 113.942 277.764 116.402 279.228 118.934C280.692 121.467 281.864 124.526 284.533 125.702C286.607 126.615 288.992 126.095 291.255 126.184C298.218 126.455 303.616 132.492 306.739 138.751C308.679 142.64 310.102 147.151 308.807 151.302C307.666 154.96 304.609 157.681 301.411 159.771C294.992 163.966 287.326 166.406 279.68 165.975C272.034 165.544 264.47 162.092 259.624 156.134C255.877 151.526 253.885 145.681 253.018 139.795C252.153 133.907 252.344 127.922 252.539 121.974" fill="#1A2E35"/>
<path d="M302.347 145.914C302.298 145.912 302.345 145.286 302.234 144.173C302.117 143.067 301.812 141.453 300.94 139.659C300.082 137.873 298.648 135.914 296.547 134.343C294.462 132.761 291.759 131.568 288.781 131.042C285.808 130.507 282.847 130.775 280.198 130.209C277.525 129.686 275.424 128.278 273.919 126.945C272.403 125.591 271.403 124.281 270.745 123.367C270.42 122.905 270.178 122.539 270.026 122.284C269.872 122.03 269.798 121.892 269.812 121.882C269.845 121.859 270.208 122.366 270.902 123.247C271.603 124.119 272.638 125.38 274.153 126.673C275.661 127.947 277.712 129.27 280.289 129.749C282.855 130.277 285.803 129.996 288.87 130.541C291.923 131.08 294.699 132.319 296.829 133.969C298.978 135.608 300.429 137.655 301.264 139.507C302.116 141.366 302.373 143.029 302.431 144.157C302.459 144.724 302.447 145.166 302.415 145.463C302.388 145.76 302.364 145.915 302.347 145.914Z" fill="#375A64"/>
<path d="M207.999 188.471L212.499 187.192L212.781 188.823L207.999 188.471ZM329.43 133.149L319.181 171.701L298.377 149.202C288.798 142.92 277.488 139.841 266.062 140.406L233.686 138.896L215.822 145.359C211.516 146.928 207.386 148.945 203.498 151.379L168.667 175.525C161.298 180.873 155.249 184.955 153.827 193.13C151.952 203.911 157.382 215.946 168.657 217.933L217.919 218.537L219.436 249.877L296.876 242.58L294.804 195.357C310.611 207.588 318.034 212.356 329.929 210.028C333.895 209.252 339.559 205.07 341.399 198.87C347.966 176.762 349.087 141.997 349.087 141.997L329.43 133.149Z" fill="#00B45A"/>
<path d="M167.932 217.951C167.932 217.942 168.073 217.934 168.347 217.926C168.645 217.92 169.05 217.912 169.569 217.904C170.669 217.895 172.247 217.882 174.267 217.865C178.375 217.855 184.278 217.839 191.572 217.82C206.218 217.83 226.444 217.844 248.874 217.86L248.62 218.102C248.647 217.542 248.674 216.934 248.702 216.326C249.063 208.552 249.413 201.028 249.738 194.04L249.958 194.296C232.531 192.664 217.593 190.14 206.928 188.784C201.597 188.081 197.338 187.608 194.417 187.269C192.976 187.107 191.854 186.982 191.067 186.894C190.704 186.849 190.419 186.814 190.203 186.787C190.009 186.76 189.911 186.744 189.912 186.736C189.912 186.729 190.012 186.732 190.208 186.744C190.424 186.76 190.71 186.782 191.075 186.809C191.864 186.878 192.989 186.976 194.435 187.103C197.362 187.39 201.628 187.816 206.966 188.476C217.654 189.748 232.592 192.208 250.004 193.807L250.236 193.828L250.225 194.063C249.906 201.051 249.563 208.575 249.208 216.35C249.181 216.958 249.153 217.565 249.126 218.126L249.116 218.37L248.872 218.369C226.443 218.294 206.218 218.226 191.571 218.176C184.277 218.129 178.375 218.088 174.267 218.061C172.246 218.037 170.668 218.018 169.569 218.004C169.05 217.993 168.645 217.984 168.347 217.977C168.073 217.968 167.932 217.959 167.932 217.951Z" fill="#1A2E35"/>
<path d="M168.919 184.512C168.907 184.479 169.187 184.342 169.71 184.121C170.228 183.89 171.007 183.626 171.986 183.366C173.944 182.84 176.769 182.467 179.866 182.773C182.963 183.091 185.659 184.02 187.473 184.927C188.382 185.377 189.095 185.791 189.556 186.12C190.024 186.442 190.271 186.631 190.253 186.662C190.204 186.74 189.154 186.059 187.323 185.253C185.498 184.443 182.847 183.592 179.816 183.28C176.784 182.98 174.018 183.287 172.069 183.717C170.116 184.141 168.952 184.598 168.919 184.512Z" fill="#1A2E35"/>
<path d="M179.637 175.525C179.671 175.469 180.498 175.869 181.756 176.655C183.015 177.439 184.699 178.621 186.421 180.097C188.12 181.571 189.672 183.01 190.311 184.434C190.634 185.132 190.73 185.767 190.701 186.193C190.68 186.623 190.58 186.843 190.556 186.837C190.459 186.839 190.7 185.873 189.991 184.596C189.324 183.313 187.787 181.954 186.092 180.486C184.388 179.024 182.757 177.81 181.558 176.955C180.36 176.098 179.598 175.59 179.637 175.525Z" fill="#1A2E35"/>
<path d="M213.167 189.007C213.097 189.023 212.771 187.852 212.291 185.952C211.808 184.052 211.169 181.422 210.382 178.542C209.592 175.662 208.768 173.09 208.103 171.252C207.443 169.412 206.979 168.292 207.05 168.26C207.082 168.245 207.235 168.508 207.483 168.999C207.735 169.488 208.062 170.213 208.438 171.122C209.192 172.939 210.078 175.514 210.87 178.407C211.661 181.3 212.246 183.949 212.639 185.871C213.031 187.793 213.234 188.992 213.167 189.007Z" fill="#1A2E35"/>
<path d="M295.799 217.266C295.659 217.271 295.1 205.518 294.55 191.02C294 176.515 293.668 164.756 293.808 164.75C293.948 164.746 294.507 176.495 295.056 191C295.606 205.5 295.939 217.261 295.799 217.266Z" fill="#1A2E35"/>
<g opacity="0.300003">
<g opacity="0.300003">
<path opacity="0.300003" d="M294.233 170.139C295.033 175.191 297.192 179.905 298.893 184.728C300.592 189.55 301.854 194.756 300.777 199.757C298.836 198.187 296.896 196.618 294.958 195.048" fill="black"/>
</g>
</g>
<path d="M324.264 192.41C324.233 192.425 324.076 192.163 323.819 191.674C323.56 191.186 323.22 190.463 322.831 189.556C322.051 187.741 321.127 185.16 320.421 182.224C319.72 179.285 319.372 176.564 319.246 174.592C319.18 173.605 319.155 172.806 319.166 172.254C319.173 171.7 319.193 171.395 319.228 171.394C319.307 171.392 319.383 172.608 319.602 174.559C319.82 176.51 320.219 179.194 320.914 182.104C321.614 185.013 322.474 187.584 323.163 189.421C323.852 191.258 324.336 192.376 324.264 192.41Z" fill="#1A2E35"/>
<g opacity="0.300003">
<g opacity="0.300003">
<path opacity="0.300003" d="M208.371 171.452L209.63 188.007L212.498 187.193L208.371 171.452Z" fill="black"/>
</g>
</g>
<path d="M292.455 171.356C292.451 171.363 292.365 171.327 292.2 171.249C292.012 171.155 291.774 171.038 291.479 170.891C290.836 170.598 289.888 170.157 288.606 169.76C286.079 168.957 282.125 168.205 277.423 169.191C275.082 169.669 272.641 170.684 270.221 172.125C267.791 173.556 265.368 175.371 262.707 177.14C260.057 178.901 257.067 180.602 253.65 181.425C250.263 182.306 246.575 182.455 242.918 181.866C241.087 181.56 239.32 181.052 237.626 180.426C235.951 179.748 234.353 178.948 232.886 177.988C231.438 177.008 230.079 175.934 228.899 174.731C227.711 173.536 226.662 172.263 225.691 170.989C223.756 168.433 222.122 165.874 220.446 163.593C218.787 161.3 217.078 159.287 215.245 157.745C213.406 156.217 211.544 155.064 209.78 154.366C208.022 153.65 206.394 153.348 205.064 153.306C202.371 153.212 200.988 154.009 200.97 153.893C200.967 153.885 201.053 153.848 201.223 153.784C201.422 153.713 201.673 153.623 201.986 153.512C202.327 153.411 202.761 153.329 203.272 153.221C203.79 153.174 204.388 153.077 205.068 153.108C206.422 153.12 208.087 153.399 209.885 154.101C211.689 154.786 213.593 155.934 215.474 157.468C217.352 159.017 219.103 161.05 220.784 163.342C222.484 165.625 224.132 168.177 226.062 170.703C227.03 171.963 228.07 173.216 229.241 174.387C230.405 175.566 231.735 176.611 233.157 177.57C234.597 178.507 236.165 179.289 237.808 179.953C239.47 180.565 241.204 181.063 242.999 181.363C246.59 181.94 250.208 181.799 253.528 180.941C256.875 180.141 259.806 178.489 262.451 176.748C265.102 175.002 267.544 173.19 270.009 171.76C272.463 170.319 274.966 169.3 277.35 168.838C282.142 167.883 286.136 168.704 288.667 169.572C289.951 170.001 290.893 170.474 291.524 170.8C291.812 170.965 292.043 171.097 292.226 171.203C292.382 171.296 292.459 171.348 292.455 171.356Z" fill="#FAFAFA"/>
<path d="M311.471 163.364C311.502 163.363 311.554 163.791 311.573 164.572C311.591 165.352 311.548 166.488 311.306 167.871C311.063 169.252 310.573 170.871 309.755 172.536C308.948 174.211 307.835 175.915 306.539 177.609C303.902 181.003 300.604 183.209 298.093 184.389C296.834 184.985 295.768 185.359 295.023 185.575C294.275 185.788 293.853 185.869 293.845 185.837C293.815 185.744 295.488 185.323 297.935 184.065C300.369 182.821 303.562 180.615 306.14 177.295C307.414 175.631 308.528 173.951 309.336 172.328C310.159 170.71 310.671 169.146 310.954 167.802C311.505 165.102 311.362 163.36 311.471 163.364Z" fill="#FAFAFA"/>
<path d="M323.246 210.048C323.236 210.063 323.109 209.991 322.873 209.842C322.646 209.682 322.278 209.486 321.871 209.143C321.02 208.508 319.888 207.44 318.744 205.909C316.432 202.88 314.432 197.73 314.391 191.874C314.364 186.023 315.815 180.889 316.904 177.279C317.463 175.467 317.958 174.017 318.312 173.018C318.666 172.02 318.88 171.474 318.912 171.485C318.946 171.495 318.795 172.063 318.5 173.079C318.18 174.178 317.758 175.627 317.247 177.381C316.249 181.008 314.871 186.112 314.898 191.869C314.94 197.62 316.842 202.674 319.035 205.698C321.213 208.778 323.341 209.945 323.246 210.048Z" fill="#FAFAFA"/>
<path d="M346.191 166.237C346.204 166.268 345.875 166.457 345.258 166.756C344.641 167.054 343.733 167.455 342.582 167.881C340.291 168.721 336.942 169.665 333.152 169.491C329.356 169.31 326.093 167.83 324.182 166.264C323.214 165.487 322.538 164.737 322.132 164.178C321.723 163.62 321.546 163.281 321.569 163.265C321.654 163.195 322.449 164.534 324.399 165.977C326.314 167.428 329.49 168.806 333.176 168.982C336.865 169.153 340.166 168.286 342.464 167.539C344.773 166.779 346.157 166.159 346.191 166.237Z" fill="#FAFAFA"/>
<path d="M201.375 187.831C201.287 187.854 200.892 186.304 199.987 183.9C199.086 181.496 197.594 178.261 195.434 174.996C193.265 171.736 190.868 169.107 189.006 167.347C187.145 165.582 185.874 164.619 185.928 164.547C185.949 164.52 186.282 164.738 186.869 165.157C187.462 165.571 188.279 166.225 189.247 167.081C191.187 168.788 193.66 171.414 195.856 174.713C198.042 178.018 199.502 181.322 200.324 183.777C200.737 185.005 201.025 186.015 201.176 186.723C201.336 187.429 201.409 187.822 201.375 187.831Z" fill="#FAFAFA"/>
<path d="M212.746 189.516C212.761 189.525 212.672 189.703 212.486 190.036C212.314 190.379 211.995 190.843 211.561 191.426C210.666 192.56 209.127 194.065 206.836 195.299C204.559 196.549 201.6 197.546 198.231 198.122C194.867 198.705 191.127 198.931 187.276 199.558C185.355 199.886 183.494 200.301 181.77 200.923C180.048 201.539 178.462 202.337 177.052 203.256C174.213 205.084 172.117 207.363 170.629 209.433C169.157 211.529 168.295 213.436 167.783 214.775C167.263 216.114 167.088 216.897 167.03 216.881C167.014 216.878 167.052 216.681 167.138 216.309C167.221 215.938 167.358 215.392 167.597 214.707C168.056 213.337 168.879 211.381 170.335 209.227C171.807 207.098 173.914 204.75 176.797 202.863C178.228 201.914 179.847 201.089 181.605 200.453C183.362 199.812 185.252 199.386 187.194 199.055C191.084 198.424 194.818 198.212 198.155 197.66C201.487 197.116 204.411 196.168 206.666 194.981C208.938 193.809 210.48 192.379 211.408 191.3C212.324 190.2 212.695 189.485 212.746 189.516Z" fill="#FAFAFA"/>
<path d="M233.521 192.206C233.555 192.196 233.674 192.538 233.86 193.167C234.058 193.794 234.26 194.725 234.433 195.887C234.615 197.05 234.705 198.452 234.683 200.01C234.635 201.566 234.459 203.276 234.084 205.035C233.689 206.792 233.135 208.418 232.529 209.851C231.899 211.275 231.231 212.51 230.581 213.488C229.938 214.471 229.365 215.231 228.925 215.716C228.493 216.208 228.243 216.469 228.217 216.445C228.142 216.384 229.085 215.286 230.277 213.297C230.88 212.309 231.503 211.075 232.099 209.668C232.671 208.249 233.201 206.65 233.588 204.926C233.956 203.198 234.143 201.523 234.216 199.995C234.263 198.466 234.211 197.084 234.077 195.932C233.825 193.626 233.428 192.23 233.521 192.206Z" fill="#FAFAFA"/>
<path d="M294.184 207.031C294.117 207.184 291.402 205.579 287.64 205.152C283.882 204.677 280.869 205.595 280.839 205.43C280.821 205.374 281.544 205.069 282.782 204.819C284.016 204.565 285.778 204.419 287.7 204.646C289.621 204.879 291.298 205.44 292.439 205.977C293.583 206.513 294.214 206.981 294.184 207.031Z" fill="#FAFAFA"/>
<path d="M339.572 108.883L329.785 133.308L348.215 141.604L352.936 120.832L339.572 108.883Z" fill="#FFBF9D"/>
<path d="M360.716 133L344.139 112.366C340.806 107.725 335.484 100.263 335.248 99.6237C334.902 98.6897 334.779 91.9679 334.93 90.2818C335.082 88.5958 334.512 83.7811 334.512 83.7811L320.873 88.9772L318.006 78.4617L316.143 79.0515C316.143 79.0515 311.205 87.6266 312.731 92.5136C314.256 97.4007 320.71 99.5963 322.312 100.592C323.914 101.588 329.966 104.197 336.809 114.576L337.914 116.179L337.922 116.191L340.692 120.216L340.698 120.212L353.334 138.504C354.798 140.536 357.609 141.022 359.665 139.599C361.826 138.103 362.304 135.099 360.716 133Z" fill="#375A64"/>
<path d="M328.214 86.1807L324.651 76.0926L325.942 75.673C325.942 75.673 332.225 79.5342 333.581 84.1357L328.214 86.1807Z" fill="#375A64"/>
<path d="M324.415 99.5082C324.42 99.5082 324.473 99.4867 324.57 99.4437C324.681 99.3928 324.821 99.3302 324.996 99.252C325.383 99.0759 325.921 98.8324 326.603 98.5224C327.993 97.8857 329.971 96.9801 332.4 95.8681L332.26 95.7713C332.227 96.3483 332.226 96.9458 332.269 97.5688C332.328 98.186 332.377 98.8461 332.694 99.471C333.37 100.628 334.184 101.76 335.018 102.969C336.702 105.374 338.574 107.97 340.547 110.674C340.83 111.04 341.056 111.381 341.113 111.809C341.175 112.22 341.105 112.652 340.904 113.011C340.52 113.75 339.632 114.142 338.853 113.959C338.462 113.881 338.109 113.669 337.844 113.38C337.597 113.076 337.353 112.719 337.109 112.396C336.625 111.736 336.15 111.09 335.686 110.459C333.831 107.943 332.16 105.677 330.752 103.766C330.408 103.274 329.951 102.901 329.531 102.577C329.106 102.251 328.687 101.972 328.293 101.715C327.504 101.203 326.804 100.795 326.229 100.469C325.654 100.142 325.203 99.8994 324.894 99.738C324.75 99.6657 324.634 99.608 324.54 99.56C324.459 99.5199 324.423 99.5121 324.415 99.5082C324.407 99.5053 324.452 99.5395 324.527 99.5845C324.618 99.6373 324.73 99.7038 324.868 99.786C325.185 99.9728 325.623 100.231 326.178 100.558C326.743 100.898 327.433 101.318 328.211 101.84C328.6 102.101 329.012 102.385 329.429 102.711C329.844 103.042 330.27 103.394 330.601 103.88C331.996 105.8 333.652 108.077 335.49 110.606C335.951 111.237 336.423 111.885 336.906 112.547C337.154 112.879 337.375 113.208 337.654 113.553C337.953 113.882 338.355 114.124 338.799 114.215C339.685 114.424 340.696 113.98 341.136 113.139C341.365 112.728 341.446 112.237 341.375 111.767C341.32 111.292 341.028 110.857 340.761 110.516C338.789 107.812 336.911 105.222 335.22 102.827C334.385 101.627 333.557 100.483 332.895 99.3654C332.604 98.8089 332.542 98.1527 332.481 97.5522C332.434 96.9429 332.431 96.3483 332.458 95.784L332.466 95.6167L332.317 95.6881C329.878 96.8617 327.894 97.8172 326.498 98.4891C325.835 98.8109 325.315 99.0642 324.94 99.2461C324.776 99.3263 324.645 99.3908 324.541 99.4417C324.453 99.4857 324.41 99.5082 324.415 99.5082Z" fill="#1A2E35"/>
<g opacity="0.300003">
<g opacity="0.300003">
<path opacity="0.300003" d="M323.146 94.5889L329.266 92.3131L329.228 88.8666L323.054 91.2412L323.146 94.5889Z" fill="black"/>
</g>
</g>
<path d="M327.923 88.6673C327.777 88.6693 327.67 89.8067 327.686 91.2072C327.701 92.6087 327.833 93.7432 327.979 93.7422C328.125 93.7402 328.232 92.6028 328.216 91.2013C328.201 89.8008 328.069 88.6664 327.923 88.6673Z" fill="#1A2E35"/>
<path d="M326.068 89.3535C325.922 89.3545 325.815 90.4929 325.83 91.8934C325.846 93.2948 325.977 94.4293 326.123 94.4283C326.27 94.4264 326.376 93.289 326.361 91.8875C326.345 90.487 326.214 89.3525 326.068 89.3535Z" fill="#1A2E35"/>
<path d="M324.292 89.7889C324.146 89.7909 324.039 90.9283 324.054 92.3298C324.07 93.7312 324.201 94.8647 324.347 94.8638C324.494 94.8618 324.601 93.7244 324.585 92.3229C324.569 90.9224 324.438 89.7879 324.292 89.7889Z" fill="#1A2E35"/>
<path d="M330.413 131.741L331.076 126.955L331.531 114.274L331.042 105.381C331.042 105.381 334.004 105.609 335.581 109.438C337.18 113.32 337.242 119.134 337.242 119.134C337.242 119.134 349.597 124.025 345.242 135.729" fill="#FFBF9D"/>
<path d="M347.15 112.345C347.205 111.355 347.109 110.315 346.585 109.475C345.994 108.526 344.923 107.957 343.828 107.755C342.732 107.554 341.913 107.535 340.813 107.715L343.137 110.969C342.611 113.181 342.383 114.668 342.107 116.927C341.98 117.961 341.99 119.232 342.879 119.77C343.603 120.207 344.591 119.873 345.157 119.243C345.725 118.614 345.973 117.766 346.204 116.95C346.632 115.44 347.062 113.914 347.15 112.345Z" fill="#FFBF9D"/>
<path d="M350.639 116.111C350.695 115.121 350.598 114.081 350.075 113.24C349.484 112.292 348.412 111.723 347.316 111.521C346.221 111.319 345.402 111.3 344.303 111.481L346.626 114.735C346.1 116.947 345.873 118.434 345.596 120.692C345.47 121.727 345.479 122.998 346.368 123.535C347.092 123.973 348.079 123.639 348.647 123.009C349.214 122.38 349.462 121.532 349.693 120.715C350.121 119.205 350.552 117.68 350.639 116.111Z" fill="#FFBF9D"/>
<path d="M354.302 119.82C354.358 118.831 354.26 117.79 353.737 116.95C353.147 116.001 352.075 115.432 350.979 115.231C349.884 115.028 349.064 115.01 347.966 115.19L350.289 118.444C349.762 120.656 349.536 122.143 349.259 124.401C349.133 125.436 349.141 126.707 350.031 127.244C350.755 127.682 351.742 127.348 352.31 126.718C352.877 126.089 353.125 125.241 353.356 124.425C353.784 122.915 354.214 121.389 354.302 119.82Z" fill="#FFBF9D"/>
<path d="M346.898 110.045C347.023 110.018 347.432 111.975 347.084 114.384C346.751 116.798 345.816 118.562 345.704 118.501C345.562 118.442 346.262 116.645 346.582 114.313C346.92 111.985 346.746 110.062 346.898 110.045Z" fill="#FF9A6C"/>
<path d="M350.631 115.146C350.757 115.118 351.1 116.866 350.648 118.976C350.21 121.093 349.191 122.549 349.087 122.474C348.953 122.399 349.736 120.892 350.151 118.872C350.586 116.856 350.479 115.158 350.631 115.146Z" fill="#FF9A6C"/>
<path d="M335.812 110.045C335.865 110.038 336.057 110.982 336.343 112.604C336.628 114.225 337.008 116.525 337.434 119.225L337.278 119.037C338.932 119.595 340.63 120.58 342.09 121.969C343.618 123.406 344.688 125.158 345.34 126.839C346.014 128.523 346.285 130.16 346.318 131.524C346.36 132.893 346.176 133.99 346.025 134.732C345.868 135.475 345.719 135.87 345.693 135.863C345.58 135.847 346.093 134.212 345.959 131.541C345.884 130.213 345.585 128.639 344.907 127.016C344.248 125.388 343.214 123.727 341.742 122.339C340.335 121.003 338.71 120.043 337.125 119.483L336.989 119.436L336.969 119.295C336.58 116.589 336.265 114.281 336.06 112.647C335.854 111.013 335.76 110.053 335.812 110.045Z" fill="#FF9A6C"/>
<path d="M334.512 83.7812C334.514 83.788 334.441 83.8213 334.299 83.876C334.104 83.9494 333.899 84.0266 333.675 84.1107C333.023 84.3543 332.26 84.6389 331.379 84.9675C329.313 85.7577 326.708 86.7533 323.826 87.8555C320.947 88.9656 318.344 89.97 316.28 90.7661C315.401 91.0986 314.639 91.3861 313.987 91.6326C313.762 91.7137 313.555 91.7881 313.36 91.8585C313.216 91.9084 313.139 91.9309 313.136 91.925C313.134 91.9181 313.205 91.8829 313.345 91.8203C313.536 91.7392 313.738 91.6531 313.958 91.5592C314.603 91.2952 315.357 90.9871 316.227 90.6311C318.147 89.8575 320.806 88.8032 323.754 87.6648C326.701 86.5284 329.379 85.5249 331.329 84.8325C332.305 84.4853 333.098 84.2154 333.649 84.0354C333.878 83.964 334.087 83.8995 334.286 83.8379C334.431 83.7939 334.51 83.7753 334.512 83.7812Z" fill="#1A2E35"/>
<path d="M249.981 197.59C249.981 197.59 262.106 194.246 264.18 194.174C265.769 194.12 274.971 195.686 279.201 196.423C280.826 196.707 282.064 198.215 281.796 199.85C281.778 199.956 281.755 200.056 281.722 200.148C281.126 201.826 279.385 201.945 279.385 201.945C279.385 201.945 281.488 202.914 281.158 205.327C280.829 207.739 277.853 207.801 277.853 207.801C277.853 207.801 278.006 207.957 278.211 208.236C279.554 210.067 278.336 212.675 276.077 212.84L274.724 212.938C274.724 212.938 276.381 213.949 276.105 215.596C275.578 218.757 268.396 218.28 268.396 218.28L249.101 217.908L249.981 197.59Z" fill="#FFBF9D"/>
<path d="M278.138 192.428C277.902 193.461 277.322 195.645 275.401 196.382L265.694 194.503C265.694 194.503 273.348 193.095 274.57 192.005C275 191.625 275.582 191.159 276.173 190.849C277.202 190.311 278.397 191.29 278.138 192.428Z" fill="#FFBF9D"/>
<path d="M270.303 195.11C270.272 195.279 272.24 195.778 274.714 196.109C277.175 196.439 279.18 196.652 279.212 196.473C279.242 196.303 277.274 195.805 274.8 195.474C272.34 195.143 270.334 194.931 270.303 195.11Z" fill="#FF9A6C"/>
<path d="M271.667 200.923C271.624 201.089 273.3 201.659 275.457 201.907C277.613 202.162 279.373 201.993 279.37 201.821C279.369 201.639 277.64 201.52 275.53 201.27C273.42 201.027 271.709 200.745 271.667 200.923Z" fill="#FF9A6C"/>
<path d="M266.804 199.463C266.645 199.532 266.751 200.094 267.249 200.536C267.745 200.98 268.313 201.019 268.362 200.852C268.419 200.681 268.059 200.407 267.673 200.056C267.28 199.713 266.966 199.386 266.804 199.463Z" fill="#FF9A6C"/>
<path d="M269.649 206.975C269.635 207.152 271.508 207.52 273.829 207.797C276.153 208.074 278.059 208.156 278.086 207.982C278.114 207.807 276.242 207.44 273.905 207.16C271.568 206.881 269.663 206.798 269.649 206.975Z" fill="#FF9A6C"/>
<path d="M264.466 203.498C264.391 203.463 264.209 203.637 264.104 204.016C263.999 204.387 264.003 204.971 264.309 205.514C264.615 206.056 265.113 206.362 265.482 206.461C265.86 206.565 266.101 206.498 266.11 206.415C266.141 206.244 265.312 206.004 264.864 205.198C264.406 204.397 264.629 203.559 264.466 203.498Z" fill="#FF9A6C"/>
<path d="M267.252 212.836C267.247 213.014 268.957 213.205 271.072 213.265C273.187 213.325 274.905 213.23 274.909 213.053C274.914 212.876 273.204 212.683 271.089 212.624C268.976 212.564 267.257 212.659 267.252 212.836Z" fill="#FF9A6C"/>
<path d="M262.272 208.908C262.192 208.885 262.04 209.081 261.993 209.463C261.943 209.841 262.036 210.379 262.314 210.876C262.897 211.855 263.651 212.292 263.759 212.189C263.907 212.057 263.351 211.383 262.873 210.564C262.382 209.74 262.431 208.962 262.272 208.908Z" fill="#FF9A6C"/>
<path d="M212.059 101.219C211.674 98.0873 208.242 95.8829 205.136 96.3484C202.03 96.8139 199.531 99.479 198.675 102.515C197.82 105.55 198.408 108.852 199.694 111.731C200.706 113.997 202.383 116.238 204.805 116.737C207.026 117.193 209.329 116.019 210.837 114.318C212.344 112.616 213.212 110.453 214.05 108.337L212.059 101.219Z" fill="#1A2E35"/>
<path d="M216.011 100.536C215.038 99.8904 213.638 100.326 212.897 101.228C212.155 102.131 211.944 103.359 211.912 104.529C211.859 106.472 212.234 108.426 213 110.212C213.232 110.75 213.555 111.323 214.113 111.494C214.647 111.658 215.239 111.378 215.595 110.947C215.951 110.514 216.117 109.958 216.248 109.413C217.027 106.165 216.858 102.694 215.767 99.5383" fill="#00B45A"/>
<path d="M271.156 85.4401C276.634 82.7457 279.772 79.9594 279.316 77.6806C278.86 75.4 267.848 71.8752 265.272 70.9148C259.191 68.6459 253.436 74.0464 243.829 75.9848C225.17 79.7501 210.805 86.6137 211.745 91.3159C212.198 93.5829 216.125 94.9335 222.16 95.3022" fill="#326144"/>
<g opacity="0.399994">
<g opacity="0.399994">
<path opacity="0.399994" d="M267.9 85.926C272.755 83.5377 275.665 81.038 275.132 79.0487C273.65 73.5132 260.217 74.2086 243.679 77.5455C227.14 80.8824 214.409 86.9666 215.241 91.1338C215.643 93.1427 219.124 94.3407 224.473 94.6674" fill="black"/>
</g>
</g>
<path d="M224.499 92.9368C222.182 79.9959 230.927 67.5851 244.026 65.6174C256.372 63.7621 267.895 72.4536 270.414 84.7392C272.623 95.508 274.607 106.392 274.769 110.376C275.256 122.387 268.515 127.436 265.757 128.992C265.126 129.347 263.363 129.805 262.655 129.946C262.61 129.955 262.583 129.999 262.593 130.043L265.98 143.679C267.663 152.643 263.075 160.965 254.176 162.76C245.246 164.562 237.842 158.006 235.986 149.046L224.499 92.9368Z" fill="#FFBF9D"/>
<path d="M266.763 92.219C266.996 93.2009 266.359 94.2092 265.343 94.4723C264.329 94.7344 263.316 94.1534 263.083 93.1706C262.85 92.1886 263.486 91.1794 264.501 90.9172C265.518 90.6542 266.53 91.2371 266.763 92.219Z" fill="#1A2E35"/>
<path d="M267.832 88.1433C267.65 88.4337 266.027 87.6689 264.021 88.0797C262.012 88.4602 260.747 89.7941 260.48 89.5907C260.352 89.5037 260.498 89.0157 261.046 88.4171C261.584 87.8225 262.57 87.1506 263.82 86.9041C265.071 86.6587 266.215 86.909 266.914 87.2601C267.626 87.6112 267.923 88.0112 267.832 88.1433Z" fill="#1A2E35"/>
<path d="M247.041 96.1992C247.274 97.1821 246.637 98.1894 245.621 98.4525C244.607 98.7146 243.593 98.1337 243.361 97.1508C243.128 96.1689 243.765 95.1596 244.779 94.8975C245.796 94.6344 246.808 95.2173 247.041 96.1992Z" fill="#1A2E35"/>
<path d="M248.185 92.4996C248.002 92.7901 246.378 92.0253 244.373 92.436C242.365 92.8165 241.1 94.1505 240.832 93.947C240.704 93.86 240.849 93.372 241.399 92.7734C241.937 92.1788 242.922 91.5069 244.173 91.2595C245.424 91.015 246.568 91.2653 247.267 91.6165C247.977 91.9676 248.276 92.3666 248.185 92.4996Z" fill="#1A2E35"/>
<path d="M258.454 105.98C258.422 105.868 259.626 105.399 261.595 104.732C262.097 104.575 262.562 104.375 262.577 104.006C262.624 103.61 262.298 103.099 261.93 102.55C261.2 101.401 260.435 100.197 259.631 98.9355C256.412 93.7785 253.972 89.4968 254.18 89.3687C254.388 89.2405 257.166 93.3159 260.385 98.4719C261.167 99.7462 261.914 100.96 262.625 102.123C262.936 102.668 263.402 103.265 263.295 104.09C263.233 104.502 262.913 104.857 262.603 105.012C262.294 105.179 262.007 105.243 261.757 105.309C259.745 105.829 258.485 106.093 258.454 105.98Z" fill="#1A2E35"/>
<path d="M262.573 129.962C262.573 129.962 254.954 132.165 244.094 128.267C244.094 128.267 249.208 137.94 263.485 133.637L262.573 129.962Z" fill="#FF9A6C"/>
<path d="M258.577 111.01C257.664 110.198 256.294 109.927 255.067 110.316C254.214 110.585 253.419 111.185 253.033 112.004C252.645 112.823 252.737 113.857 253.354 114.439C254.048 115.095 255.215 115.044 256.118 114.576C257.021 114.11 257.718 113.311 258.374 112.521C258.557 112.302 258.741 112.076 258.829 111.81C258.916 111.543 258.883 111.225 258.676 111.059" fill="#FF9A6C"/>
<path d="M252.829 108.566C253.151 108.481 253.593 110.669 255.767 111.847C257.939 113.029 260.211 112.315 260.29 112.617C260.348 112.748 259.858 113.146 258.884 113.371C257.929 113.598 256.463 113.571 255.133 112.851C253.805 112.128 253.062 110.956 252.808 110.073C252.542 109.175 252.677 108.584 252.829 108.566Z" fill="#1A2E35"/>
<path d="M247.665 85.9964C247.577 86.5842 245.522 86.7289 243.225 87.4888C240.913 88.2027 239.152 89.2776 238.742 88.8492C238.557 88.6419 238.783 88.06 239.445 87.3744C240.1 86.6908 241.213 85.9426 242.595 85.4996C243.976 85.0595 245.315 85.0233 246.243 85.2013C247.177 85.3764 247.698 85.7186 247.665 85.9964Z" fill="#1A2E35"/>
<path d="M266.056 83.0986C265.794 83.6277 264.317 83.4312 262.65 83.7451C260.973 83.9984 259.642 84.6713 259.223 84.2585C259.035 84.0541 259.164 83.5505 259.693 82.993C260.213 82.4395 261.155 81.881 262.304 81.6854C263.454 81.4918 264.526 81.7069 265.198 82.059C265.879 82.4111 266.167 82.8444 266.056 83.0986Z" fill="#1A2E35"/>
<path d="M252.707 73.6571C251.217 77.2072 248.064 80.0092 244.374 81.0605C241.953 81.751 239.068 81.8801 237.535 83.8869C236.416 85.352 236.417 87.3491 236.156 89.1769C235.757 91.9564 236.466 95.1643 234.35 96.999C232.692 98.4337 231.141 98.3956 230.125 100.343C229.055 102.394 229.312 105.041 229.729 107.318C230.146 109.595 230.671 113.233 228.836 114.634C227.111 106.376 222.668 97.5476 220.942 89.2884C220.685 88.0591 220.427 86.7936 220.639 85.5554C221.119 82.7583 223.786 80.9363 226.313 79.6669C233.468 76.0708 241.344 74.2214 249.137 72.4003" fill="#1A2E35"/>
<path d="M274.229 76.4074C274.229 76.4074 265.407 57.4254 264.8 56.5383C264.192 55.6503 256.784 48.0542 242.757 48.2879L231.574 50.5442C231.574 50.5442 216.724 58.8797 214.601 63.3481C212.479 67.8176 215.007 86.9336 215.007 86.9336L244.996 73.756L267.368 74.6793L274.229 76.4074Z" fill="#00B45A"/>
<path d="M238.641 46.7389L241.729 46.1159C242.991 45.8616 244.295 46.3692 245.018 47.4381C245.509 48.1628 246.012 49.1506 246.362 50.4562C247.283 53.9037 252.859 77.7092 252.859 77.7092L238.714 79.896L233.247 50.2069L228.698 52.2303L228.602 51.3423C228.544 50.8093 228.652 50.2704 228.91 49.801C229.27 49.1467 229.892 48.6802 230.618 48.5188L238.641 46.7389Z" fill="#00B45A"/>
<path d="M270.69 79.1962L267.828 72.5546L244.538 70.1292L219.752 83.2451L221.31 91.0447C221.31 91.0447 241.703 77.6607 270.69 79.1962Z" fill="#375A64"/>
<path d="M265.272 70.9145L266.38 71.6313L274.886 75.69C274.886 75.69 259.523 73.7116 244.459 76.9204C229.394 80.1292 213.149 88.7327 213.149 88.7327L221.942 80.671C224.436 76.6152 228.458 73.7468 233.091 72.7159L251.966 68.5203C256.542 67.5032 261.332 68.3648 265.272 70.9145Z" fill="#00B45A"/>
<path d="M272.785 76.3999C272.798 76.3735 272.609 76.2649 272.231 76.0801C271.861 75.8747 271.284 75.6497 270.518 75.4258C268.99 74.974 266.701 74.5945 263.863 74.5074C258.199 74.3392 250.302 75.0942 242.009 77.5754C237.868 78.7246 233.878 79.7476 230.337 81.0053C226.799 82.309 223.749 83.6879 221.198 84.9544C219.931 85.598 218.814 86.2376 217.861 86.8449C216.906 87.4337 216.09 88.0733 215.666 88.8029C215.236 89.5286 215.209 90.22 215.296 90.6415C215.391 91.0709 215.553 91.2459 215.571 91.2342C215.655 91.2557 215.083 90.2992 215.946 88.9828C216.367 88.353 217.138 87.7995 218.108 87.2537C219.071 86.6933 220.193 86.0987 221.462 85.4972C223.999 84.3227 227.114 82.9857 230.594 81.7505C234.105 80.5486 238.078 79.5539 242.236 78.3999C250.459 75.9383 258.252 75.1011 263.85 75.1128C266.654 75.1216 268.911 75.4023 270.435 75.7485C271.968 76.0732 272.742 76.4967 272.785 76.3999Z" fill="#1A2E35"/>
<path d="M270.595 78.9801C273.294 85.0349 282.691 93.6481 273.684 102.012C273.684 102.012 270.837 88.2975 268.661 83.2099C268.019 81.7097 267.28 80.1576 266.052 79.0867" fill="#1A2E35"/>
<path d="M224.367 90.309C218.183 91.2478 213.474 97.8904 214.611 104.068C214.908 105.682 215.543 107.273 215.383 108.907C215.224 110.499 214.327 111.916 213.93 113.465C213.141 116.54 212.996 121.6 214.035 124.6C216.503 131.735 225.52 140.544 233.685 138.896" fill="#1A2E35"/>
<path d="M230.411 133.025C232.085 133.44 233.901 132.768 235.163 131.587C236.425 130.407 237.196 128.782 237.685 127.121C239.26 121.782 238.035 115.693 234.519 111.387C238.638 104.074 238.76 94.6432 234.831 87.224L223.375 90.6275L230.411 133.025Z" fill="#1A2E35"/>
<path d="M212.181 108.25C212.221 108.281 211.659 109.067 210.363 109.891C209.092 110.705 206.974 111.463 204.623 111.154C202.276 110.868 200.373 109.676 199.353 108.533C198.304 107.37 198.188 106.34 198.242 106.348C198.323 106.314 198.558 107.255 199.612 108.284C200.641 109.303 202.469 110.38 204.685 110.648C206.904 110.94 208.911 110.286 210.184 109.579C211.473 108.868 212.12 108.186 212.181 108.25Z" fill="#375A64"/>
<path d="M211.312 106.707C211.336 106.758 210.605 107.165 209.294 107.435C207.995 107.707 206.084 107.767 204.122 107.13C202.16 106.495 200.645 105.323 199.75 104.339C198.842 103.35 198.488 102.59 198.536 102.563C198.604 102.514 199.063 103.194 200.003 104.085C200.935 104.975 202.411 106.04 204.278 106.646C206.144 107.252 207.963 107.254 209.235 107.079C210.517 106.91 211.284 106.628 211.312 106.707Z" fill="#375A64"/>
<path d="M236.157 90.3974C236.186 90.3994 236.185 90.8131 236.096 91.5544C236.007 92.2947 235.793 93.3608 235.363 94.6282C234.529 97.1495 232.6 100.514 229.288 102.975C225.972 105.43 222.203 106.29 219.56 106.348C218.227 106.387 217.151 106.278 216.421 106.144C215.689 106.013 215.296 105.892 215.302 105.863C215.316 105.759 216.927 106.156 219.542 105.988C222.129 105.839 225.772 104.945 228.987 102.564C232.198 100.179 234.122 96.9461 235.026 94.505C235.956 92.0444 236.054 90.3788 236.157 90.3974Z" fill="#375A64"/>
<path d="M236.494 107.637C236.516 107.657 236.329 107.913 235.927 108.318C235.527 108.724 234.884 109.255 234.006 109.784C232.263 110.856 229.475 111.735 226.35 111.727C223.228 111.717 220.477 111.037 218.534 110.512C217.56 110.244 216.78 110.002 216.244 109.824C215.709 109.646 215.417 109.53 215.427 109.496C215.446 109.424 216.662 109.712 218.621 110.163C220.578 110.597 223.305 111.21 226.349 111.218C229.39 111.223 232.094 110.43 233.83 109.47C235.587 108.524 236.427 107.563 236.494 107.637Z" fill="#375A64"/>
<path d="M274.72 74.4391C274.714 74.4557 274.482 74.3873 274.047 74.2425C273.564 74.0763 272.936 73.8582 272.15 73.5863C270.456 72.976 268.099 72.1261 265.209 71.0846L265.178 71.0728L265.151 71.0484C264.579 70.534 263.982 69.997 263.361 69.4366C262.728 68.8762 262.127 68.265 261.357 67.8513C260.596 67.4259 259.719 67.1462 258.797 67.066C257.876 66.9613 256.926 67.1775 255.922 67.331C251.944 68.0029 247.602 68.9349 243.065 69.9892C238.843 70.9741 234.818 71.9755 231.138 72.9261C230.2 73.1511 229.35 73.3907 228.6 73.866C227.851 74.3208 227.22 74.9203 226.733 75.5922C225.834 77.0044 225.036 78.4372 224.273 79.6998L224.251 79.735L224.223 79.7555C221.415 81.8426 219.123 83.5472 217.481 84.7678C216.71 85.3262 216.094 85.7722 215.628 86.1106C215.199 86.4137 214.969 86.5644 214.958 86.5497C214.946 86.535 215.155 86.3541 215.561 86.0225C216.012 85.6646 216.609 85.1903 217.354 84.5986C218.971 83.3448 221.229 81.5951 223.995 79.4523L223.946 79.5071C224.701 78.2201 225.452 76.8254 226.383 75.3379C226.895 74.6161 227.565 73.9697 228.363 73.4768C229.149 72.9643 230.111 72.6885 231.018 72.4665C234.697 71.4944 238.722 70.4792 242.95 69.4924C247.494 68.4371 251.846 67.5168 255.846 66.8674C256.835 66.7237 257.838 66.5017 258.838 66.619C259.824 66.7139 260.757 67.021 261.562 67.4826C262.386 67.9364 263.013 68.5907 263.625 69.1452C264.238 69.7124 264.829 70.2591 265.393 70.7804L265.335 70.7452C268.201 71.8503 270.539 72.7521 272.219 73.4005C272.991 73.7085 273.609 73.957 274.082 74.1467C274.507 74.3218 274.725 74.4225 274.72 74.4391Z" fill="#1A2E35"/>
<path d="M237.088 71.1452C237.053 71.152 236.956 70.8068 236.809 70.1779C236.663 69.5491 236.469 68.6366 236.237 67.506C235.777 65.2459 235.173 62.1182 234.539 58.6561C234.229 56.9319 233.934 55.2889 233.663 53.773C233.535 53.0287 233.412 52.3157 233.296 51.639C233.227 51.058 232.612 50.7412 232.153 50.8967C231.18 51.2927 230.346 51.6321 229.65 51.9157C229.051 52.1485 228.713 52.2619 228.699 52.2306C228.684 52.1984 228.996 52.0233 229.57 51.7338C230.154 51.4453 230.963 51.0424 232.043 50.5534C232.672 50.3001 233.586 50.7372 233.708 51.5627C233.84 52.2365 233.978 52.9465 234.122 53.6879C234.406 55.2018 234.714 56.8419 235.037 58.5642C235.672 62.0253 236.219 65.1637 236.59 67.4405C236.775 68.5789 236.918 69.5021 237.004 70.1427C237.09 70.7823 237.122 71.1393 237.088 71.1452Z" fill="#1A2E35"/>
<path d="M250.599 68.1328C250.537 68.1533 250.115 67.0824 249.586 65.3034C249.05 63.5264 248.43 61.0393 247.785 58.2892C247.137 55.5381 246.577 53.0413 246.198 51.228C245.817 49.4148 245.616 48.2862 245.685 48.2696C245.753 48.253 246.077 49.3532 246.546 51.1449C247.015 52.9366 247.631 55.4207 248.279 58.1718C248.906 60.8408 249.473 63.2545 249.932 65.2085C250.371 67.0042 250.669 68.1103 250.599 68.1328Z" fill="#1A2E35"/>
<path d="M274.494 107.437C274.467 107.312 276.885 107.595 280.273 106.043C281.93 105.281 283.862 104.072 285.267 102.101C286.675 100.156 287.11 97.293 286.486 94.5917C285.866 91.8612 284.164 89.5814 282.093 88.355C280.01 87.1169 277.825 86.5565 276.133 85.7369C274.421 84.9496 273.189 83.9765 272.523 83.1501C272.183 82.7423 271.982 82.3804 271.85 82.1369C271.732 81.8846 271.68 81.7486 271.696 81.7418C271.739 81.7173 271.974 82.2572 272.671 83.0191C273.363 83.7819 274.584 84.6778 276.279 85.4083C277.958 86.1741 280.147 86.6885 282.334 87.9521C284.525 89.2176 286.334 91.6176 286.979 94.4754C287.63 97.3096 287.169 100.304 285.648 102.373C284.143 104.431 282.132 105.632 280.417 106.373C278.683 107.121 277.163 107.391 276.12 107.472C275.595 107.505 275.188 107.514 274.913 107.487C274.637 107.471 274.494 107.454 274.494 107.437Z" fill="#1A2E35"/>
<path d="M201.623 103.54C201.61 103.552 201.535 103.496 201.402 103.374C201.261 103.258 201.084 103.06 200.871 102.788C200.451 102.244 199.968 101.33 199.763 100.096C199.576 98.8757 199.685 97.3001 200.538 95.8468C201.367 94.3808 203.041 93.2786 204.931 92.9901C206.823 92.7026 208.748 93.259 209.972 94.4131C211.214 95.5485 211.782 97.0214 211.963 98.2419C212.129 99.483 211.936 100.498 211.697 101.143C211.572 101.465 211.461 101.708 211.361 101.861C211.27 102.016 211.214 102.093 211.2 102.084C211.154 102.061 211.336 101.729 211.508 101.084C211.683 100.443 211.81 99.4674 211.608 98.3006C211.394 97.1505 210.82 95.7862 209.662 94.7642C208.527 93.7265 206.764 93.2297 205.008 93.4938C203.253 93.7637 201.715 94.7622 200.937 96.0903C200.132 97.4106 199.985 98.8845 200.118 100.046C200.269 101.221 200.677 102.116 201.033 102.675C201.388 103.24 201.66 103.504 201.623 103.54Z" fill="#1A2E35"/>
<path d="M231.916 137.322C231.92 137.339 231.78 137.389 231.508 137.469C231.237 137.552 230.833 137.654 230.31 137.782C229.262 138.018 227.731 138.343 225.799 138.456C223.882 138.562 221.498 138.447 219.106 137.415C216.708 136.407 214.529 134.342 213.095 131.727C211.649 129.104 211.062 126.227 211.06 123.655C211.045 121.071 211.527 118.781 212.061 116.924C212.604 115.063 213.212 113.616 213.659 112.634C213.885 112.143 214.069 111.768 214.204 111.517C214.337 111.266 214.415 111.138 214.43 111.146C214.467 111.162 214.232 111.711 213.84 112.712C213.451 113.713 212.898 115.169 212.406 117.021C211.922 118.869 211.487 121.127 211.528 123.65C211.556 126.162 212.14 128.939 213.538 131.479C214.927 134.01 217.007 135.996 219.294 136.985C221.579 138 223.894 138.156 225.782 138.096C227.685 138.031 229.216 137.763 230.27 137.587C231.324 137.398 231.907 137.284 231.916 137.322Z" fill="#1A2E35"/>
<path d="M211.15 113.173C211.166 113.178 211.125 113.337 211.029 113.638C210.927 113.937 210.734 114.365 210.409 114.873C209.753 115.86 208.432 117.183 206.332 117.788C205.299 118.099 204.075 118.201 202.82 117.948C201.565 117.703 200.294 117.114 199.165 116.229C198.043 115.336 197.056 114.148 196.379 112.732C195.705 111.317 195.356 109.697 195.346 108.043C195.334 104.725 196.557 101.633 198.383 99.4389C200.192 97.2188 202.763 96.0032 204.945 96.0961C207.13 96.1391 208.759 97.0809 209.591 97.9347C210.452 98.7934 210.631 99.4673 210.631 99.4673C210.576 99.5035 210.328 98.8619 209.456 98.0795C208.614 97.299 207.025 96.4521 204.944 96.456C202.874 96.4149 200.465 97.5915 198.742 99.7382C197.007 101.858 195.84 104.855 195.853 108.038C195.863 109.626 196.194 111.173 196.828 112.519C197.463 113.863 198.395 115.002 199.455 115.861C200.522 116.713 201.72 117.285 202.905 117.534C204.088 117.79 205.241 117.717 206.235 117.441C208.254 116.907 209.563 115.681 210.247 114.758C210.932 113.807 211.096 113.15 211.15 113.173Z" fill="#1A2E35"/>
<path d="M489.357 448.21H172.579C164.748 448.21 158.4 441.831 158.4 433.963V233.127C158.4 225.259 164.748 218.881 172.579 218.881H489.357C497.188 218.881 503.536 225.259 503.536 233.127V433.963C503.536 441.831 497.189 448.21 489.357 448.21Z" fill="#375A64"/>
<path d="M501.517 453.465H162.235C152.668 453.465 144.912 445.672 144.912 436.06V433.399H518.84V436.06C518.84 445.672 511.084 453.465 501.517 453.465Z" fill="#375A64"/>
<path d="M493.307 421.657H167.664V227.992H493.307V421.657Z" fill="#1A2E35"/>
<path d="M296.945 431.249L301.585 438.665H366.878L371.187 431.249H296.945Z" fill="#1A2E35"/>
<path d="M484.084 421.037H177.558C175.799 421.037 174.372 419.605 174.372 417.836V237.749C174.372 235.981 175.798 234.548 177.558 234.548H484.084C485.843 234.548 487.268 235.981 487.268 237.749V417.837C487.268 419.605 485.843 421.037 484.084 421.037Z" fill="#ECECEC"/>
<path d="M486.934 421.31H174.037L174.372 248.485H486.934V421.31Z" fill="#FAFAFA"/>
<path d="M200.034 241.75C200.034 243.137 198.916 244.261 197.536 244.261C196.155 244.261 195.036 243.137 195.036 241.75C195.036 240.364 196.155 239.24 197.536 239.24C198.916 239.24 200.034 240.364 200.034 241.75Z" fill="#1A2E35"/>
<path d="M184.889 241.75C184.889 243.137 183.771 244.261 182.39 244.261C181.01 244.261 179.891 243.137 179.891 241.75C179.891 240.364 181.01 239.24 182.39 239.24C183.771 239.24 184.889 240.364 184.889 241.75Z" fill="#1A2E35"/>
<path d="M192.159 241.75C192.159 243.137 191.04 244.261 189.66 244.261C188.28 244.261 187.161 243.137 187.161 241.75C187.161 240.364 188.28 239.24 189.66 239.24C191.04 239.24 192.159 240.364 192.159 241.75Z" fill="#1A2E35"/>
<path d="M500.57 431.249C500.57 431.373 423.967 431.473 329.493 431.473C234.988 431.473 158.4 431.373 158.4 431.249C158.4 431.125 234.988 431.025 329.493 431.025C423.967 431.025 500.57 431.125 500.57 431.249Z" fill="#1A2E35"/>
<path d="M370.762 387.581C370.762 387.722 351.997 387.836 328.852 387.836C305.7 387.836 286.938 387.722 286.938 387.581C286.938 387.44 305.7 387.325 328.852 387.325C351.997 387.325 370.762 387.44 370.762 387.581Z" fill="#E1E1E1"/>
<path d="M181.639 413.85L275.011 413.766L274.949 343.249L181.577 343.333L181.639 413.85Z" fill="#F5F5F5"/>
<path d="M181.639 413.85L214.213 369.988L234.439 397.393L248.128 382.721L275.011 413.766L181.639 413.85Z" fill="#E1E1E1"/>
<path d="M242.985 364.593C242.988 368.673 239.7 371.984 235.641 371.988C231.58 371.99 228.285 368.687 228.281 364.607C228.278 360.527 231.566 357.216 235.627 357.212C239.687 357.208 242.981 360.513 242.985 364.593Z" fill="#E1E1E1"/>
<path d="M383.106 413.955L476.479 413.872L476.416 343.355L383.044 343.438L383.106 413.955Z" fill="#F5F5F5"/>
<path d="M383.106 413.955L415.68 370.092L435.906 397.499L449.596 382.826L476.479 413.871L383.106 413.955Z" fill="#E1E1E1"/>
<path d="M444.453 364.697C444.457 368.777 441.168 372.088 437.107 372.092C433.046 372.094 429.751 368.791 429.75 364.711C429.746 360.631 433.034 357.32 437.093 357.316C441.154 357.313 444.449 360.617 444.453 364.697Z" fill="#E1E1E1"/>
<path d="M461.673 329.381C461.673 329.311 462.673 329.247 464.289 329.2C465.907 329.155 468.141 329.126 470.608 329.126C471.567 329.131 472.49 329.135 473.353 329.139L473.112 329.381C473.129 327.572 473.161 326.018 473.203 324.916C473.245 323.812 473.297 323.162 473.353 323.162C473.41 323.162 473.461 323.812 473.503 324.916C473.546 326.018 473.577 327.572 473.594 329.381L473.596 329.622L473.353 329.624C472.49 329.628 471.567 329.632 470.608 329.636C468.141 329.636 465.907 329.607 464.289 329.562C462.673 329.515 461.673 329.452 461.673 329.381Z" fill="#E1E1E1"/>
<path d="M438.313 329.381C438.313 329.24 440.929 329.126 444.153 329.126C447.379 329.126 449.993 329.24 449.993 329.381C449.993 329.522 447.379 329.636 444.153 329.636C440.929 329.636 438.313 329.522 438.313 329.381Z" fill="#E1E1E1"/>
<path d="M414.953 329.381C414.953 329.24 417.568 329.126 420.793 329.126C424.019 329.126 426.633 329.24 426.633 329.381C426.633 329.522 424.019 329.636 420.793 329.636C417.568 329.636 414.953 329.522 414.953 329.381Z" fill="#E1E1E1"/>
<path d="M391.593 329.381C391.593 329.24 394.209 329.126 397.433 329.126C400.659 329.126 403.273 329.24 403.273 329.381C403.273 329.522 400.659 329.636 397.433 329.636C394.209 329.636 391.593 329.522 391.593 329.381Z" fill="#E1E1E1"/>
<path d="M368.233 329.381C368.233 329.24 370.849 329.126 374.073 329.126C377.299 329.126 379.913 329.24 379.913 329.381C379.913 329.522 377.299 329.636 374.073 329.636C370.849 329.636 368.233 329.522 368.233 329.381Z" fill="#E1E1E1"/>
<path d="M344.873 329.381C344.873 329.24 347.489 329.126 350.713 329.126C353.939 329.126 356.553 329.24 356.553 329.381C356.553 329.522 353.939 329.636 350.713 329.636C347.489 329.636 344.873 329.522 344.873 329.381Z" fill="#E1E1E1"/>
<path d="M321.513 329.381C321.513 329.24 324.129 329.126 327.353 329.126C330.579 329.126 333.193 329.24 333.193 329.381C333.193 329.522 330.579 329.636 327.353 329.636C324.129 329.636 321.513 329.522 321.513 329.381Z" fill="#E1E1E1"/>
<path d="M298.153 329.381C298.153 329.24 300.768 329.126 303.993 329.126C307.219 329.126 309.833 329.24 309.833 329.381C309.833 329.522 307.219 329.636 303.993 329.636C300.768 329.636 298.153 329.522 298.153 329.381Z" fill="#E1E1E1"/>
<path d="M274.793 329.381C274.793 329.24 277.409 329.126 280.633 329.126C283.859 329.126 286.473 329.24 286.473 329.381C286.473 329.522 283.859 329.636 280.633 329.636C277.409 329.636 274.793 329.522 274.793 329.381Z" fill="#E1E1E1"/>
<path d="M251.433 329.381C251.433 329.24 254.048 329.126 257.273 329.126C260.499 329.126 263.113 329.24 263.113 329.381C263.113 329.522 260.499 329.636 257.273 329.636C254.048 329.636 251.433 329.522 251.433 329.381Z" fill="#E1E1E1"/>
<path d="M228.073 329.381C228.073 329.24 230.689 329.126 233.913 329.126C237.139 329.126 239.753 329.24 239.753 329.381C239.753 329.522 237.139 329.636 233.913 329.636C230.689 329.636 228.073 329.522 228.073 329.381Z" fill="#E1E1E1"/>
<path d="M204.713 329.381C204.713 329.24 207.328 329.126 210.553 329.126C213.779 329.126 216.393 329.24 216.393 329.381C216.393 329.522 213.779 329.636 210.553 329.636C207.328 329.636 204.713 329.522 204.713 329.381Z" fill="#E1E1E1"/>
<path d="M181.368 329.367C181.368 329.367 181.372 329.368 181.373 329.381L181.368 329.374C181.432 329.237 184.017 329.126 187.193 329.126C190.419 329.126 193.033 329.24 193.033 329.381C193.033 329.521 190.419 329.636 187.193 329.636C184.017 329.636 181.432 329.525 181.368 329.387L181.362 329.381C181.364 329.368 181.368 329.367 181.368 329.367Z" fill="#E1E1E1"/>
<path d="M181.368 305.895C181.508 305.895 181.621 308.523 181.621 311.763C181.621 315.004 181.508 317.631 181.368 317.631C181.227 317.631 181.115 315.004 181.115 311.763C181.115 308.523 181.227 305.895 181.368 305.895Z" fill="#E1E1E1"/>
<path d="M181.368 282.423C181.508 282.423 181.621 285.051 181.621 288.291C181.621 291.532 181.508 294.159 181.368 294.159C181.227 294.159 181.115 291.532 181.115 288.291C181.115 285.051 181.227 282.423 181.368 282.423Z" fill="#E1E1E1"/>
<path d="M181.368 258.951C181.508 258.951 181.621 261.579 181.621 264.819C181.621 268.06 181.508 270.687 181.368 270.687C181.227 270.687 181.115 268.06 181.115 264.819C181.115 261.579 181.227 258.951 181.368 258.951Z" fill="#E1E1E1"/>
<path d="M201.633 255.841C201.633 255.982 199.017 256.097 195.793 256.097C192.567 256.097 189.953 255.982 189.953 255.841C189.953 255.701 192.567 255.586 195.793 255.586C199.017 255.586 201.633 255.701 201.633 255.841Z" fill="#E1E1E1"/>
<path d="M224.993 255.841C224.993 255.982 222.377 256.097 219.153 256.097C215.927 256.097 213.312 255.982 213.312 255.841C213.312 255.701 215.927 255.586 219.153 255.586C222.377 255.586 224.993 255.701 224.993 255.841Z" fill="#E1E1E1"/>
<path d="M248.353 255.841C248.353 255.982 245.737 256.097 242.513 256.097C239.287 256.097 236.673 255.982 236.673 255.841C236.673 255.701 239.287 255.586 242.513 255.586C245.737 255.586 248.353 255.701 248.353 255.841Z" fill="#E1E1E1"/>
<path d="M271.713 255.841C271.713 255.982 269.097 256.097 265.873 256.097C262.647 256.097 260.033 255.982 260.033 255.841C260.033 255.701 262.647 255.586 265.873 255.586C269.097 255.586 271.713 255.701 271.713 255.841Z" fill="#E1E1E1"/>
<path d="M295.073 255.841C295.073 255.982 292.457 256.097 289.233 256.097C286.007 256.097 283.393 255.982 283.393 255.841C283.393 255.701 286.007 255.586 289.233 255.586C292.457 255.586 295.073 255.701 295.073 255.841Z" fill="#E1E1E1"/>
<path d="M318.433 255.841C318.433 255.982 315.817 256.097 312.593 256.097C309.367 256.097 306.753 255.982 306.753 255.841C306.753 255.701 309.367 255.586 312.593 255.586C315.817 255.586 318.433 255.701 318.433 255.841Z" fill="#E1E1E1"/>
<path d="M341.793 255.841C341.793 255.982 339.177 256.097 335.953 256.097C332.727 256.097 330.113 255.982 330.113 255.841C330.113 255.701 332.727 255.586 335.953 255.586C339.177 255.586 341.793 255.701 341.793 255.841Z" fill="#E1E1E1"/>
<path d="M365.153 255.841C365.153 255.982 362.537 256.097 359.313 256.097C356.087 256.097 353.473 255.982 353.473 255.841C353.473 255.701 356.087 255.586 359.313 255.586C362.537 255.586 365.153 255.701 365.153 255.841Z" fill="#E1E1E1"/>
<path d="M388.513 255.841C388.513 255.982 385.897 256.097 382.673 256.097C379.447 256.097 376.833 255.982 376.833 255.841C376.833 255.701 379.447 255.586 382.673 255.586C385.897 255.586 388.513 255.701 388.513 255.841Z" fill="#E1E1E1"/>
<path d="M411.873 255.841C411.873 255.982 409.257 256.097 406.033 256.097C402.807 256.097 400.193 255.982 400.193 255.841C400.193 255.701 402.807 255.586 406.033 255.586C409.257 255.586 411.873 255.701 411.873 255.841Z" fill="#E1E1E1"/>
<path d="M435.233 255.841C435.233 255.982 432.617 256.097 429.393 256.097C426.167 256.097 423.553 255.982 423.553 255.841C423.553 255.701 426.167 255.586 429.393 255.586C432.617 255.586 435.233 255.701 435.233 255.841Z" fill="#E1E1E1"/>
<path d="M458.593 255.841C458.593 255.982 455.977 256.097 452.753 256.097C449.527 256.097 446.913 255.982 446.913 255.841C446.913 255.701 449.527 255.586 452.753 255.586C455.977 255.586 458.593 255.701 458.593 255.841Z" fill="#E1E1E1"/>
<path d="M473.353 264.481C473.213 264.481 473.099 261.854 473.099 258.613C473.111 257.636 473.121 256.716 473.13 255.841L473.353 256.066C471.513 256.023 470.273 255.939 470.273 255.841C470.273 255.744 471.513 255.66 473.353 255.617L473.574 255.612L473.576 255.841C473.586 256.716 473.596 257.636 473.607 258.613C473.607 261.854 473.493 264.481 473.353 264.481Z" fill="#E1E1E1"/>
<path d="M473.353 287.953C473.213 287.953 473.099 285.326 473.099 282.086C473.099 278.844 473.213 276.218 473.353 276.218C473.493 276.218 473.607 278.844 473.607 282.086C473.607 285.326 473.493 287.953 473.353 287.953Z" fill="#E1E1E1"/>
<path d="M473.353 311.425C473.213 311.425 473.099 308.798 473.099 305.557C473.099 302.316 473.213 299.689 473.353 299.689C473.493 299.689 473.607 302.316 473.607 305.557C473.607 308.798 473.493 311.425 473.353 311.425Z" fill="#E1E1E1"/>
<path d="M370.762 411.361C370.762 411.502 351.997 411.616 328.852 411.616C305.7 411.616 286.938 411.502 286.938 411.361C286.938 411.22 305.7 411.106 328.852 411.106C351.997 411.106 370.762 411.22 370.762 411.361Z" fill="#E1E1E1"/>
<path d="M370.762 400.481C370.762 400.622 351.997 400.735 328.852 400.735C305.7 400.735 286.938 400.622 286.938 400.481C286.938 400.339 305.7 400.226 328.852 400.226C351.997 400.226 370.762 400.339 370.762 400.481Z" fill="#E1E1E1"/>
<path d="M114.04 453.269H108.997V316.614H114.04V453.269Z" fill="#1A2E35"/>
<path d="M140.839 292.034C140.839 308.305 127.712 321.495 111.519 321.495C95.3253 321.495 82.198 308.305 82.198 292.034C82.198 275.762 95.3253 262.571 111.519 262.571C127.712 262.571 140.839 275.762 140.839 292.034Z" fill="#FF4F5B"/>
<path d="M137.91 291.672C137.901 291.672 137.886 291.527 137.862 291.243C137.841 290.936 137.812 290.519 137.774 289.985C137.756 289.706 137.737 289.398 137.715 289.059C137.678 288.719 137.605 288.352 137.545 287.952C137.417 287.154 137.295 286.228 136.989 285.221C136.52 283.176 135.563 280.762 134.058 278.204C132.54 275.655 130.353 272.994 127.378 270.737C124.412 268.501 120.669 266.599 116.351 265.831C112.061 265.092 107.22 265.226 102.608 266.987C101.435 267.365 100.333 267.947 99.1986 268.494C98.6457 268.795 98.1172 269.146 97.5702 269.472C97.0134 269.784 96.5034 270.173 95.9924 270.566C94.9295 271.299 94.001 272.215 93.0276 273.1C92.1477 274.078 91.224 275.034 90.4658 276.145C88.9104 278.316 87.5517 280.729 86.7292 283.381C85.8775 286.018 85.4191 288.818 85.3811 291.668C85.4181 294.519 85.8766 297.32 86.7282 299.957C87.5497 302.612 88.9085 305.023 90.4639 307.197C91.2221 308.307 92.1458 309.264 93.0257 310.242C93.999 311.126 94.9286 312.043 95.9914 312.777C96.5024 313.169 97.0125 313.558 97.5692 313.87C98.1162 314.196 98.6457 314.548 99.1976 314.848C100.332 315.396 101.435 315.979 102.608 316.356C107.22 318.118 112.062 318.252 116.353 317.511C120.671 316.745 124.414 314.842 127.379 312.606C130.355 310.349 132.541 307.686 134.059 305.14C135.563 302.58 136.521 300.166 136.989 298.122C137.296 297.114 137.417 296.188 137.545 295.39C137.605 294.991 137.678 294.623 137.715 294.284C137.737 293.946 137.756 293.637 137.774 293.359C137.812 292.825 137.841 292.407 137.862 292.1C137.886 291.816 137.901 291.672 137.91 291.672C137.919 291.672 137.92 291.816 137.914 292.101C137.905 292.409 137.892 292.829 137.876 293.365C137.866 293.645 137.855 293.955 137.842 294.297C137.813 294.638 137.747 295.008 137.694 295.411C137.581 296.217 137.474 297.151 137.18 298.17C136.737 300.237 135.801 302.685 134.302 305.285C132.792 307.873 130.598 310.585 127.597 312.891C124.605 315.178 120.815 317.128 116.429 317.927C112.075 318.699 107.15 318.578 102.45 316.798C101.254 316.416 100.129 315.825 98.9728 315.271C98.4102 314.965 97.87 314.61 97.3132 314.278C96.7448 313.961 96.225 313.567 95.7033 313.168C94.62 312.423 93.671 311.491 92.6782 310.591C91.7798 309.597 90.8386 308.621 90.0638 307.492C88.4754 305.281 87.0893 302.821 86.2493 300.117C85.3792 297.429 84.912 294.572 84.874 291.668C84.912 288.763 85.3802 285.908 86.2513 283.221C87.0922 280.519 88.4773 278.059 90.0658 275.849C90.8406 274.72 91.7818 273.745 92.6802 272.75C93.672 271.852 94.621 270.92 95.7043 270.175C96.226 269.775 96.7458 269.382 97.3132 269.065C97.8709 268.734 98.4102 268.378 98.9737 268.073C100.129 267.517 101.254 266.927 102.45 266.546C107.149 264.766 112.073 264.646 116.428 265.416C120.813 266.214 124.603 268.165 127.595 270.45C130.597 272.757 132.79 275.468 134.301 278.057C135.8 280.657 136.737 283.105 137.18 285.172C137.474 286.191 137.581 287.127 137.694 287.932C137.747 288.335 137.813 288.705 137.842 289.046C137.855 289.387 137.866 289.697 137.876 289.979C137.892 290.515 137.905 290.934 137.914 291.242C137.92 291.527 137.919 291.672 137.91 291.672Z" fill="white"/>
<path d="M126.784 294.75H96.2529V288.349H126.784V294.75Z" fill="#FAFAFA"/>
<path d="M511.255 337.526L225.685 360.582L219.025 277.281L504.593 254.225L511.255 337.526Z" fill="white"/>
<path d="M511.255 337.526C511.156 336.321 508.733 306.734 504.435 254.238L504.606 254.385C438.325 259.758 334.936 268.14 219.062 277.533L219.045 277.535L219.277 277.261C221.574 306.015 223.81 334.004 225.931 360.562L225.666 360.334C307.508 353.772 378.871 348.051 429.781 343.969C480.69 339.943 510.056 337.621 511.255 337.526C511.255 337.526 510.79 337.574 509.863 337.655C508.929 337.734 507.548 337.85 505.733 338.004C502.083 338.306 496.697 338.752 489.724 339.329C475.748 340.474 455.417 342.14 429.973 344.224C379.025 348.366 307.609 354.171 225.705 360.829L225.459 360.85L225.44 360.601C223.313 334.044 221.073 306.055 218.771 277.301L218.751 277.048L219.004 277.027L219.022 277.026C334.901 267.708 438.296 259.395 504.581 254.066L504.74 254.053L504.751 254.213C508.85 306.725 511.161 336.321 511.255 337.526Z" fill="#1A2E35"/>
<path d="M231.344 352.785L321.296 346.355L316.486 278.421L226.534 284.852L231.344 352.785Z" fill="#00B45A"/>
<path d="M429.065 337.498C429.078 337.638 426.482 337.972 423.268 338.246C422.719 337.781 423.116 338.116 422.994 338.01V338.008V338.004L422.993 337.994L422.991 337.975L422.988 337.938L422.981 337.862L422.968 337.713L422.945 337.415C422.929 337.22 422.915 337.026 422.9 336.834C422.874 336.46 422.848 336.095 422.822 335.735C422.787 335.094 422.754 334.475 422.72 333.872C422.677 332.81 422.685 332.15 422.755 332.144C422.825 332.139 422.943 332.788 423.077 333.842C423.146 334.441 423.216 335.057 423.288 335.695C423.324 336.055 423.359 336.419 423.395 336.791C423.412 336.984 423.43 337.177 423.448 337.372L423.474 337.67L423.486 337.819L423.492 337.895L423.496 337.932L423.497 337.951L423.498 337.961V337.966L423.499 337.968C423.376 337.865 423.772 338.202 423.225 337.738C426.439 337.465 429.054 337.358 429.065 337.498Z" fill="#E1E1E1"/>
<path d="M455.482 335.257C455.493 335.397 452.546 335.761 448.899 336.07C445.251 336.379 442.285 336.517 442.274 336.377C442.262 336.237 445.208 335.873 448.856 335.563C452.503 335.254 455.47 335.116 455.482 335.257Z" fill="#E1E1E1"/>
<path d="M481.897 333.016C481.909 333.156 478.961 333.52 475.315 333.829C471.667 334.138 468.701 334.276 468.689 334.136C468.678 333.997 471.624 333.632 475.272 333.322C478.919 333.013 481.885 332.875 481.897 333.016Z" fill="#E1E1E1"/>
<path d="M500.432 325.554C500.573 325.542 500.905 328.15 501.177 331.379C500.715 331.93 501.048 331.532 500.943 331.655H500.941H500.937L500.927 331.656L500.907 331.658L500.87 331.661L500.796 331.668L500.647 331.681L500.351 331.704C500.156 331.72 499.963 331.733 499.773 331.749C499.4 331.776 499.037 331.802 498.679 331.827C498.04 331.863 497.424 331.896 496.824 331.93C495.767 331.973 495.11 331.965 495.105 331.895C495.1 331.824 495.745 331.706 496.794 331.57C497.391 331.503 498.004 331.432 498.64 331.36C498.997 331.324 499.359 331.288 499.731 331.252C499.922 331.235 500.113 331.217 500.308 331.199L500.604 331.173L500.753 331.159L500.828 331.155L500.866 331.151L500.884 331.15L500.894 331.149L500.899 331.148H500.901C500.798 331.27 501.133 330.873 500.672 331.422C500.4 328.193 500.293 325.566 500.432 325.554Z" fill="#E1E1E1"/>
<path d="M498.593 303.662C498.733 303.65 499.052 306.091 499.305 309.113C499.56 312.137 499.652 314.597 499.513 314.607C499.374 314.62 499.055 312.179 498.801 309.156C498.547 306.134 498.453 303.674 498.593 303.662Z" fill="#E1E1E1"/>
<path d="M496.753 281.769C496.893 281.757 497.212 284.197 497.466 287.22C497.72 290.243 497.813 292.704 497.673 292.715C497.534 292.727 497.215 290.286 496.96 287.263C496.706 284.24 496.614 281.781 496.753 281.769Z" fill="#E1E1E1"/>
<path d="M489.523 265.47C489.511 265.329 492.107 264.995 495.321 264.721C495.869 265.186 495.473 264.852 495.595 264.956V264.959V264.963L495.596 264.973L495.598 264.992L495.601 265.03L495.608 265.105L495.62 265.255L495.644 265.552C495.659 265.747 495.673 265.941 495.689 266.133C495.715 266.507 495.741 266.872 495.766 267.232C495.802 267.874 495.835 268.493 495.869 269.095C495.911 270.157 495.904 270.817 495.833 270.823C495.764 270.828 495.646 270.18 495.51 269.125C495.443 268.526 495.373 267.91 495.301 267.271C495.265 266.912 495.23 266.548 495.194 266.175C495.177 265.983 495.159 265.789 495.141 265.595L495.115 265.298L495.102 265.148L495.097 265.073L495.093 265.034L495.092 265.016L495.091 265.006L495.09 265.001V264.999C495.212 265.102 494.816 264.765 495.364 265.229C492.15 265.502 489.535 265.61 489.523 265.47Z" fill="#E1E1E1"/>
<path d="M463.107 267.711C463.095 267.57 466.043 267.205 469.69 266.896C473.337 266.587 476.304 266.449 476.315 266.59C476.326 266.73 473.38 267.094 469.732 267.404C466.086 267.713 463.119 267.851 463.107 267.711Z" fill="#E1E1E1"/>
<path d="M436.691 269.951C436.679 269.811 439.627 269.447 443.274 269.138C446.922 268.829 449.888 268.691 449.899 268.831C449.911 268.971 446.964 269.335 443.317 269.645C439.67 269.954 436.703 270.092 436.691 269.951Z" fill="#E1E1E1"/>
<path d="M418.155 277.414C418.015 277.426 417.683 274.817 417.411 271.588C417.874 271.037 417.541 271.435 417.645 271.313L417.647 271.312H417.651L417.661 271.311L417.681 271.31L417.718 271.306L417.792 271.3L417.942 271.288L418.238 271.263C418.433 271.248 418.625 271.234 418.816 271.218C419.188 271.192 419.551 271.165 419.91 271.141C420.548 271.106 421.164 271.071 421.765 271.037C422.821 270.995 423.478 271.002 423.484 271.073C423.489 271.143 422.843 271.261 421.794 271.397C421.197 271.465 420.584 271.535 419.949 271.607C419.592 271.644 419.229 271.679 418.858 271.716C418.666 271.733 418.475 271.75 418.28 271.769L417.984 271.794L417.835 271.808L417.76 271.814L417.723 271.817L417.704 271.819H417.694L417.689 271.82H417.688C417.79 271.697 417.455 272.095 417.917 271.545C418.188 274.774 418.296 277.401 418.155 277.414Z" fill="#E1E1E1"/>
<path d="M419.996 299.305C419.856 299.317 419.536 296.876 419.283 293.854C419.029 290.831 418.936 288.37 419.076 288.36C419.215 288.347 419.533 290.788 419.788 293.811C420.043 296.834 420.135 299.293 419.996 299.305Z" fill="#E1E1E1"/>
<path d="M421.835 321.198C421.696 321.21 421.377 318.77 421.124 315.747C420.87 312.724 420.776 310.263 420.916 310.253C421.054 310.241 421.374 312.681 421.628 315.704C421.882 318.727 421.975 321.187 421.835 321.198Z" fill="#E1E1E1"/>
<path d="M231.344 352.785L259.773 308.312L281.105 333.34L293.305 318.273L321.296 346.355L231.344 352.785Z" fill="#326144"/>
<path d="M287.129 301.158C287.407 305.088 284.462 308.5 280.55 308.78C276.638 309.06 273.241 306.101 272.964 302.17C272.686 298.24 275.631 294.826 279.543 294.547C283.455 294.268 286.851 297.226 287.129 301.158Z" fill="#326144"/>
<path d="M410.271 290.126C410.285 290.266 392.798 292.002 371.218 294.003C349.631 296.006 332.127 297.514 332.114 297.375C332.101 297.235 349.585 295.499 371.171 293.496C392.751 291.495 410.258 289.986 410.271 290.126Z" fill="#1A2E35"/>
<path d="M412.532 303.194C412.546 303.335 394.864 305.088 373.045 307.112C351.217 309.136 333.519 310.664 333.506 310.523C333.493 310.384 351.171 308.63 372.998 306.604C394.818 304.582 412.52 303.054 412.532 303.194Z" fill="#1A2E35"/>
<path d="M414.794 316.262C414.807 316.403 396.936 318.174 374.883 320.219C352.823 322.266 334.935 323.811 334.923 323.67C334.91 323.531 352.776 321.759 374.837 319.712C396.889 317.668 414.781 316.121 414.794 316.262Z" fill="#1A2E35"/>
<path d="M415.262 329.219C415.276 329.359 397.383 331.133 375.304 333.181C353.217 335.23 335.308 336.776 335.295 336.636C335.282 336.496 353.171 334.723 375.257 332.674C397.336 330.626 415.249 329.078 415.262 329.219Z" fill="#1A2E35"/>
<path d="M371.773 284.759L330.629 288.08L330.367 284.801L371.51 281.479L371.773 284.759Z" fill="#326144"/>
<path d="M460.209 311.708C460.07 311.72 459.541 306.895 459.027 300.933C458.514 294.969 458.21 290.126 458.349 290.114C458.488 290.102 459.018 294.925 459.533 300.889C460.046 306.851 460.349 311.695 460.209 311.708Z" fill="#E1E1E1"/>
<path d="M469.207 300.394C469.216 300.534 464.596 300.942 458.888 301.306C453.179 301.669 448.545 301.849 448.537 301.709C448.528 301.568 453.148 301.16 458.856 300.797C464.563 300.434 469.198 300.253 469.207 300.394Z" fill="#E1E1E1"/>
<path d="M504.593 254.225C504.593 254.225 504.359 254.15 503.91 253.98C503.446 253.802 502.783 253.548 501.915 253.215C500.152 252.527 497.573 251.518 494.249 250.219C487.576 247.592 477.923 243.787 465.933 239.063C441.945 229.563 408.626 216.368 371.249 201.564L371.454 201.556C367.64 203.458 363.576 205.485 359.472 207.532C320.706 226.83 285.615 244.298 260.202 256.948C247.499 263.245 237.216 268.342 230.094 271.871C226.544 273.618 223.784 274.977 221.898 275.906C220.967 276.358 220.255 276.703 219.761 276.943C219.278 277.174 219.024 277.281 219.024 277.281C219.024 277.281 219.262 277.143 219.737 276.896C220.227 276.646 220.931 276.285 221.852 275.813C223.729 274.865 226.475 273.478 230.007 271.693C237.111 268.13 247.369 262.983 260.043 256.625C285.439 243.941 320.506 226.426 359.247 207.075C363.351 205.029 367.414 203.003 371.23 201.101L371.331 201.051L371.435 201.093C408.788 215.955 442.085 229.204 466.06 238.743C478.024 243.528 487.659 247.381 494.317 250.045C497.629 251.38 500.195 252.415 501.951 253.124C502.811 253.476 503.47 253.747 503.926 253.934C504.37 254.12 504.593 254.225 504.593 254.225Z" fill="#1A2E35"/>
<path d="M446.449 117.58C444.957 114.289 441.091 112.836 437.815 114.335C436.352 115.005 435.258 116.153 434.625 117.507L424.448 118.351L434.733 138.72L441.174 126.807C441.863 126.736 442.553 126.56 443.22 126.255C446.495 124.756 447.941 120.872 446.449 117.58Z" fill="#1A2E35"/>
<path d="M387.739 88.0678L394.377 85.2238L378.363 81.17C377.368 79.6091 375.724 78.4776 373.752 78.2096C370.186 77.7235 366.902 80.235 366.419 83.8194C365.935 87.4028 368.435 90.7025 372.001 91.1886C373.798 91.4331 375.522 90.9167 376.853 89.8859L392.062 99.2336L387.739 88.0678Z" fill="#1A2E35"/>
<path d="M519.727 353.423L526.979 334.631L534.258 358.827L519.727 353.423ZM518.084 352.81L497.194 345.04L496.686 344.228L525.85 330.878L526.155 331.894L518.084 352.81ZM511.97 368.648L498.726 347.488L517.449 354.452L511.97 368.648ZM502.449 317.892L522.713 323.122L492.804 336.813L502.449 317.892ZM475.913 311.042L500.709 317.442L491.378 335.748L475.913 311.042ZM484.692 278.794L509.425 285.663L473.021 302.327L484.692 278.794ZM460.211 271.998L482.97 278.317L471.404 301.64L460.211 271.998ZM468.831 244.039L490.949 251.787L459.622 266.127L468.831 244.039ZM446.73 236.297L467.173 243.458L457.864 265.784L446.73 236.297ZM452.803 208.903L473.003 217.669L445.685 230.175L452.803 208.903ZM433.167 200.381L451.19 208.202L444.11 229.357L433.167 200.381ZM437.035 174.348L454.473 183.82L432.342 193.95L437.035 174.348ZM419.804 164.988L435.441 173.482L430.617 193.626L419.804 164.988ZM440.272 153.309L435.866 171.711L419.495 162.819L440.272 153.309ZM421.022 138.534L437.148 149.417L418.303 158.044L421.022 138.534ZM405.982 128.385L419.405 137.443L416.707 156.789L405.982 128.385ZM405.084 103.596L419.012 115.386L404.56 122.001L405.084 103.596ZM403.434 99.8965L391.939 90.1655L403.867 84.7053L403.434 99.8965ZM402.86 120.115L392.647 93.0692L403.371 102.146L402.86 120.115ZM405.549 87.2285L419.627 113.601L405.148 101.346L405.549 87.2285ZM419.674 135.504L406.343 126.507L421.924 119.375L419.674 135.504ZM437.875 147.786L421.293 136.595L423.49 120.837L437.875 147.786ZM456.593 182.849L456.472 182.904L437.46 172.578L441.687 154.926L456.593 182.849ZM451.75 206.527L433.651 198.672L458.131 187.467L451.75 206.527ZM474.503 216.401L453.364 207.227L459.624 188.528L474.503 216.401ZM467.851 241.831L447.455 234.686L476.345 221.462L467.851 241.831ZM492.73 250.546L469.51 242.412L477.789 222.557L492.73 250.546ZM483.767 276.71L461.583 270.552L494.235 255.605L483.767 276.71ZM510.687 284.185L485.488 277.189L495.826 256.345L510.687 284.185ZM501.529 315.834L477.272 309.573L513.075 293.184L501.529 315.834ZM522.992 321.375L503.269 316.284L514.709 293.843L522.992 321.375ZM515.891 288.03L515.85 287.894L405.987 82.0872L405.367 80.9234L388.053 88.8491L470.921 308.306L470.97 308.438L520.311 387.262L521.309 387.114L522.445 386.945L523.341 386.813L513.135 370.506L519.094 355.065L534.893 360.94L541.851 384.072L542.68 383.949L543.732 383.793L544.655 383.656L515.891 288.03Z" fill="#1A2E35"/>
<path d="M371.178 179.465C371.178 179.465 371.157 178.874 371.149 177.726C371.142 176.569 371.131 174.865 371.118 172.638C371.107 168.163 371.088 161.595 371.065 153.178C371.043 136.323 371.014 112.077 370.977 82.4628V82.2818L371.157 82.2623C380.758 81.2491 391.118 80.1547 401.994 79.0065L402.105 78.9948L402.181 79.0789C425.635 105.42 453.143 136.313 482.43 169.204C528.048 220.507 569.339 266.945 599.235 300.566C614.158 317.386 626.234 330.998 634.587 340.413C638.748 345.12 641.98 348.776 644.179 351.264C645.267 352.503 646.099 353.449 646.664 354.094C647.222 354.734 647.498 355.07 647.498 355.07C647.498 355.07 647.197 354.756 646.626 354.13C646.051 353.492 645.207 352.556 644.103 351.332C641.888 348.859 638.631 345.224 634.44 340.545C626.058 331.156 613.941 317.581 598.967 300.806C569.044 267.211 527.713 220.808 482.051 169.543C452.783 136.637 425.291 105.728 401.851 79.3762L402.039 79.4486C391.163 80.5821 380.801 81.6628 371.198 82.6632L371.378 82.4628C371.342 112.077 371.312 136.323 371.291 153.178C371.268 161.595 371.25 168.163 371.237 172.638C371.225 174.865 371.215 176.569 371.208 177.726C371.198 178.874 371.178 179.465 371.178 179.465Z" fill="#1A2E35"/>
<path d="M372.95 162.447H368.774C368.568 162.447 368.399 162.278 368.399 162.071V152.214C368.399 152.007 368.568 151.837 368.774 151.837H372.95C373.157 151.837 373.324 152.007 373.324 152.214V162.071C373.324 162.278 373.157 162.447 372.95 162.447Z" fill="#1A2E35"/>
<path d="M379.215 164.091H363.047C362.053 164.091 361.247 163.281 361.247 162.281C361.247 161.282 362.053 160.472 363.047 160.472H379.215C380.209 160.472 381.016 161.282 381.016 162.281C381.016 163.281 380.209 164.091 379.215 164.091Z" fill="#1A2E35"/>
<path d="M372.311 193.153L372.251 190.836L369.877 191.853C369.783 192.706 369.771 193.569 369.837 194.424C369.849 194.563 369.862 194.706 369.93 194.827C370.045 195.037 370.286 195.133 370.506 195.227C371.524 195.663 372.469 196.378 372.952 197.379C373.435 198.38 373.516 200.556 371.343 201.328C369.431 202.008 367.734 200.206 367.71 199.372C367.699 198.977 367.708 198.41 367.161 198.356C366.369 198.279 366.03 199.432 366.053 200.041C366.181 203.555 369.464 204.669 370.864 204.718C371.808 204.751 372.769 204.6 373.583 204.128C374.899 203.366 375.878 202.007 376.138 200.504C376.928 195.927 372.062 193.447 372.311 193.153Z" fill="#1A2E35"/>
<path d="M374.347 192.003L384.679 167.013C385.613 164.753 383.961 162.265 381.524 162.265H371.192H360.861C358.425 162.265 356.772 164.753 357.707 167.013L368.039 192.003C369.205 194.824 373.181 194.824 374.347 192.003Z" fill="#E1E1E1"/>
<path d="M361.912 164.038L359.242 166.72C359.269 166.822 359.247 166.927 359.289 167.027L360.162 169.138L365.238 164.038H361.912Z" fill="#FF4F5B"/>
<path d="M371.89 164.038H368.564L361.138 171.499L362.114 173.86L371.89 164.038Z" fill="#FF4F5B"/>
<path d="M378.992 176.952L381.356 171.235L366.995 185.665L367.971 188.026L378.992 176.952Z" fill="#FF4F5B"/>
<path d="M376.628 182.669L368.947 190.386L369.207 191.015C369.451 191.606 369.9 192.016 370.457 192.211L374.265 188.385L376.628 182.669Z" fill="#FF4F5B"/>
<path d="M378.541 164.038H375.216L363.09 176.222L364.066 178.582L378.541 164.038Z" fill="#FF4F5B"/>
<path d="M383.254 165.986C383.221 165.641 383.102 165.304 382.9 164.999C382.616 164.571 382.186 164.329 381.717 164.188L365.043 180.943L366.018 183.304L383.254 165.986Z" fill="#FF4F5B"/>
<path d="M657.239 360.224H634.744V352.261C634.744 350.837 635.893 349.682 637.311 349.682H654.671C656.089 349.682 657.239 350.837 657.239 352.261V360.224Z" fill="#1A2E35"/>
<path d="M595.415 357.604H591.728V335.564C591.728 334.586 591.88 333.615 592.179 332.683L594.03 326.915C594.066 326.804 594.218 326.788 594.275 326.891L596.453 330.756L595.877 332.546C595.571 333.499 595.415 334.495 595.415 335.497V357.604Z" fill="#1A2E35"/>
<path d="M571.186 347.515L568.728 369.841C568.696 370.126 568.653 370.406 568.599 370.683C567.708 375.236 563.5 378.371 558.884 378.365L547.927 378.352C545.776 378.349 544.176 376.352 544.633 374.239L549.788 347.381C550.145 345.637 551.688 344.373 553.457 344.373H568.386C569.185 344.373 569.951 344.717 570.484 345.316C571.018 345.914 571.274 346.716 571.186 347.515ZM686.336 361.619C685.281 359.076 683.014 357.247 680.315 356.762L588.037 356.718V341.278C588.037 339.204 586.364 337.523 584.3 337.523H539.718C538.094 337.523 536.658 338.574 536.16 340.126L534.829 344.373H539.789C540.949 344.373 542.033 344.88 542.766 345.76C543.498 346.64 543.784 347.782 543.55 348.896L538.776 371.629C538.409 373.37 536.827 374.633 535.014 374.633H525.539C525.42 376.08 525.492 377.539 525.798 378.97L526.325 381.241L501.909 386.067C501.511 386.146 501.198 386.453 501.111 386.851L498.814 393.052C498.68 393.293 498.571 393.597 498.485 393.943L498.473 393.975H498.477C497.982 396.026 498.346 399.449 499.575 399.449H525.731L524.585 400.74L523.112 405.353H689.285C689.325 390.395 688.931 367.881 686.336 361.619Z" fill="#326144"/>
<path d="M612.037 416.483L541.331 417.477C540.872 417.477 540.057 416.108 540.057 415.647V407.716C540.057 407.253 540.43 406.88 540.889 406.88H612.037C612.497 406.88 612.869 407.253 612.869 407.716V415.646C612.869 416.108 612.497 416.483 612.037 416.483Z" fill="#375A64"/>
<path d="M571.185 347.509L568.728 369.836C568.696 370.121 568.653 370.401 568.599 370.678C567.707 375.23 563.5 378.365 558.883 378.36L547.927 378.346C545.776 378.344 544.175 376.347 544.633 374.234L549.788 347.376C550.145 345.631 551.688 344.368 553.456 344.368H568.385C569.185 344.368 569.95 344.712 570.484 345.311C571.018 345.909 571.273 346.711 571.185 347.509Z" fill="#FF4F5B"/>
<path d="M689.348 407.285C689.388 406.598 689.314 405.815 689.119 405.496H523.351C523.157 405.815 523.083 406.598 523.123 407.285H689.348Z" fill="#FF4F5B"/>
<path d="M536.16 340.122L526.179 371.274C525.382 373.76 525.251 376.412 525.798 378.966L530.067 398.88H557.12H588.037V341.274C588.037 339.2 586.363 337.519 584.3 337.519H539.716C538.095 337.519 536.657 338.57 536.16 340.122Z" fill="#326144"/>
<path d="M547.926 378.352C545.775 378.349 544.175 376.352 544.633 374.239L549.787 347.381C550.145 345.637 551.687 344.373 553.457 344.373H568.386C569.186 344.373 569.951 344.716 570.485 345.316C571.019 345.914 571.273 346.715 571.185 347.514L568.728 369.841C568.696 370.126 568.654 370.406 568.599 370.683C567.706 375.235 563.501 378.371 558.884 378.365L547.926 378.352Z" fill="#B3E9CE"/>
<path d="M525.542 374.678C525.637 373.583 525.856 372.501 526.199 371.457L534.862 344.418H539.821C540.98 344.418 542.067 344.924 542.799 345.805C543.531 346.685 543.816 347.828 543.582 348.942L538.808 371.673C538.442 373.414 536.86 374.678 535.047 374.678H525.542Z" fill="#B3E9CE"/>
<path d="M689.425 409.766H523.332C522.063 409.766 522.063 405.142 523.332 405.142H689.425C690.696 405.142 690.696 409.766 689.425 409.766Z" fill="#1A2E35"/>
<path d="M588.181 357.903C588.19 357.903 588.196 357.988 588.197 358.151C588.196 358.344 588.196 358.581 588.195 358.874C588.18 359.551 588.16 360.479 588.135 361.655C588.06 364.112 587.955 367.592 587.824 371.877C587.674 376.206 587.495 381.339 587.297 387.036C587.244 388.463 587.19 389.925 587.136 391.42C587.062 392.905 586.946 394.517 586.159 395.957C585.39 397.413 583.899 398.393 582.336 398.843C580.761 399.314 579.105 399.412 577.458 399.421C564.36 399.172 552.505 398.949 543.874 398.786C539.61 398.679 536.145 398.592 533.699 398.533C532.53 398.492 531.606 398.461 530.933 398.437C530.642 398.422 530.407 398.41 530.214 398.4C530.051 398.389 529.969 398.379 529.969 398.369C529.969 398.36 530.052 398.354 530.215 398.348C530.408 398.345 530.644 398.34 530.935 398.335C531.609 398.335 532.533 398.334 533.702 398.334C536.148 398.355 539.615 398.388 543.88 398.426C552.509 398.551 564.361 398.721 577.457 398.911C579.08 398.903 580.696 398.803 582.19 398.357C583.677 397.928 585.022 397.035 585.725 395.715C586.447 394.407 586.577 392.867 586.652 391.396C586.712 389.905 586.772 388.443 586.83 387.019C587.068 381.323 587.284 376.19 587.466 371.862C587.664 367.582 587.825 364.103 587.939 361.647C588.003 360.474 588.054 359.546 588.092 358.87C588.114 358.577 588.131 358.341 588.145 358.149C588.16 357.986 588.171 357.902 588.181 357.903Z" fill="white"/>
<path d="M540.85 399.111C540.71 399.111 540.596 394.218 540.596 388.183C540.596 382.147 540.71 377.255 540.85 377.255C540.99 377.255 541.104 382.147 541.104 388.183C541.104 394.218 540.99 399.111 540.85 399.111Z" fill="white"/>
<path d="M549.539 337.7C549.573 337.707 549.507 338.268 549.357 339.279C549.209 340.291 548.969 341.751 548.653 343.549C548.019 347.149 547.053 352.106 545.842 357.549C544.627 362.993 543.396 367.891 542.44 371.418C541.963 373.181 541.561 374.604 541.265 375.582C540.971 376.561 540.793 377.098 540.759 377.088C540.725 377.079 540.84 376.524 541.075 375.531C541.336 374.452 541.68 373.037 542.093 371.327C542.959 367.781 544.133 362.875 545.347 357.438C546.558 352.001 547.577 347.061 548.3 343.483C548.652 341.759 548.942 340.332 549.164 339.244C549.373 338.245 549.505 337.694 549.539 337.7Z" fill="white"/>
<path d="M568.767 387.239C568.757 387.185 569.157 387.225 569.675 386.863C569.921 386.679 570.183 386.38 570.296 385.96C570.391 385.552 570.391 384.992 570.122 384.547C569.855 384.088 569.313 383.749 568.677 383.786C567.978 383.794 567.243 383.801 566.473 383.81C564.906 383.816 563.206 383.823 561.422 383.83C560.639 383.815 559.966 384.488 559.935 385.221C559.828 386.002 560.28 386.695 560.928 386.919C561.086 386.975 561.251 387.005 561.417 387.009C561.606 387.011 561.792 387.013 561.975 387.015C562.341 387.019 562.699 387.023 563.045 387.028C563.725 387.038 564.366 387.049 564.967 387.058C566.141 387.081 567.09 387.109 567.747 387.139C568.404 387.17 568.767 387.204 568.767 387.239C568.767 387.274 568.404 387.307 567.747 387.339C567.09 387.368 566.141 387.395 564.967 387.419C564.366 387.428 563.725 387.438 563.045 387.45C562.699 387.454 562.341 387.459 561.975 387.463C561.791 387.464 561.605 387.466 561.415 387.468C561.202 387.467 560.985 387.432 560.776 387.363C559.921 387.11 559.307 386.118 559.439 385.188C559.472 384.206 560.372 383.3 561.422 383.32C563.206 383.328 564.906 383.335 566.473 383.34C567.243 383.348 567.978 383.356 568.677 383.364C569.438 383.338 570.139 383.793 570.433 384.367C570.592 384.652 570.66 384.964 570.666 385.252C570.672 385.519 570.652 385.805 570.567 386.044C570.406 386.53 570.077 386.85 569.784 387.029C569.483 387.207 569.214 387.258 569.036 387.267C568.859 387.278 568.767 387.252 568.767 387.239Z" fill="white"/>
<path d="M678.497 363.243C678.497 363.384 671.708 363.497 663.336 363.497C654.96 363.497 648.173 363.384 648.173 363.243C648.173 363.102 654.96 362.988 663.336 362.988C671.708 362.988 678.497 363.102 678.497 363.243Z" fill="#1A2E35"/>
<path d="M678.497 366.276C678.497 366.417 671.708 366.531 663.336 366.531C654.96 366.531 648.173 366.417 648.173 366.276C648.173 366.135 654.96 366.021 663.336 366.021C671.708 366.021 678.497 366.135 678.497 366.276Z" fill="#1A2E35"/>
<path d="M678.497 369.308C678.497 369.449 671.708 369.563 663.336 369.563C654.96 369.563 648.173 369.449 648.173 369.308C648.173 369.167 654.96 369.053 663.336 369.053C671.708 369.053 678.497 369.167 678.497 369.308Z" fill="#1A2E35"/>
<path d="M678.497 372.34C678.497 372.481 671.708 372.596 663.336 372.596C654.96 372.596 648.173 372.481 648.173 372.34C648.173 372.2 654.96 372.086 663.336 372.086C671.708 372.086 678.497 372.2 678.497 372.34Z" fill="#1A2E35"/>
<path d="M678.497 375.373C678.497 375.515 671.708 375.629 663.336 375.629C654.96 375.629 648.173 375.515 648.173 375.373C648.173 375.232 654.96 375.119 663.336 375.119C671.708 375.119 678.497 375.232 678.497 375.373Z" fill="#1A2E35"/>
<path d="M678.497 378.405C678.497 378.547 671.708 378.66 663.336 378.66C654.96 378.66 648.173 378.547 648.173 378.405C648.173 378.264 654.96 378.151 663.336 378.151C671.708 378.151 678.497 378.264 678.497 378.405Z" fill="#1A2E35"/>
<path d="M678.497 381.438C678.497 381.579 671.708 381.693 663.336 381.693C654.96 381.693 648.173 381.579 648.173 381.438C648.173 381.297 654.96 381.183 663.336 381.183C671.708 381.183 678.497 381.297 678.497 381.438Z" fill="#1A2E35"/>
<path d="M506.33 453.465C497.225 453.465 489.568 444.645 489.568 435.498C489.568 426.351 497.578 418.636 506.682 418.636L653.287 411.975C660.865 411.631 668.14 415.535 671.677 422.276C673.54 425.83 674.516 430.347 673.312 435.928C669.472 453.728 654.71 453.508 648.985 453.124C643.262 452.74 506.33 453.465 506.33 453.465Z" fill="#1A2E35"/>
<path d="M520.023 435.387C520.023 442.986 513.892 449.146 506.33 449.146C498.766 449.146 492.635 442.986 492.635 435.387C492.635 427.787 498.766 421.629 506.33 421.629C513.892 421.629 520.023 427.787 520.023 435.387Z" fill="#375A64"/>
<path d="M670.076 432.59C670.076 442.419 662.146 450.387 652.363 450.387C642.581 450.387 634.65 442.419 634.65 432.59C634.65 422.76 642.581 414.793 652.363 414.793C662.146 414.793 670.076 422.76 670.076 432.59Z" fill="#375A64"/>
<path d="M654.345 415.353C654.345 415.362 654.216 415.381 653.964 415.414C653.688 415.445 653.318 415.486 652.846 415.539C651.834 415.642 650.387 415.786 648.539 415.973C644.798 416.346 639.379 416.831 632.68 417.381C619.283 418.489 600.75 419.769 580.258 420.678C559.757 421.582 541.184 421.943 527.742 422.024C521.02 422.066 515.581 422.061 511.822 422.021C509.965 422 508.511 421.981 507.493 421.969C507.019 421.959 506.646 421.95 506.368 421.943C506.115 421.934 505.985 421.925 505.985 421.916C505.985 421.908 506.115 421.899 506.369 421.891C506.646 421.885 507.019 421.877 507.494 421.867C508.511 421.856 509.965 421.842 511.822 421.824C515.608 421.785 521.038 421.731 527.738 421.664C541.176 421.491 559.743 421.073 580.235 420.171C600.721 419.259 619.249 418.038 632.652 417.024C639.331 416.498 644.747 416.072 648.521 415.777C650.374 415.63 651.822 415.516 652.836 415.437C653.311 415.405 653.682 415.38 653.96 415.362C654.214 415.347 654.344 415.344 654.345 415.353Z" fill="#375A64"/>
<path d="M648.709 448.704C648.709 448.845 616.829 448.958 577.511 448.958C538.178 448.958 506.305 448.845 506.305 448.704C506.305 448.563 538.178 448.449 577.511 448.449C616.829 448.449 648.709 448.563 648.709 448.704Z" fill="#375A64"/>
<path d="M530.75 398.634C530.676 398.65 530.339 397.313 529.739 395.17C529.146 393.025 528.279 390.073 527.402 386.785C526.517 383.498 525.852 380.475 525.571 378.25C525.437 377.136 525.401 376.225 525.417 375.597C525.461 374.968 525.503 374.625 525.538 374.628C525.623 374.635 525.536 376.009 525.926 378.198C526.294 380.385 527.008 383.372 527.891 386.653C528.768 389.934 529.581 392.907 530.086 395.08C530.341 396.168 530.53 397.051 530.635 397.668C530.741 398.284 530.784 398.626 530.75 398.634Z" fill="white"/>
<path d="M642.61 443.58C642.594 443.603 642.216 443.39 641.597 442.907C640.976 442.426 640.146 441.629 639.312 440.489C638.477 439.351 637.681 437.835 637.18 436.023C636.675 434.22 636.51 432.107 636.91 429.964C637.339 427.828 638.281 425.93 639.422 424.448C640.562 422.956 641.866 421.851 643.066 421.112C644.265 420.369 645.331 419.942 646.086 419.731C646.841 419.517 647.271 419.463 647.276 419.488C647.318 419.601 645.56 419.88 643.261 421.415C642.117 422.172 640.878 423.273 639.794 424.73C638.711 426.18 637.82 428.011 637.406 430.061C637.025 432.116 637.167 434.149 637.631 435.902C638.09 437.66 638.828 439.148 639.606 440.281C641.165 442.571 642.69 443.491 642.61 443.58Z" fill="#FAFAFA"/>
<path d="M565.66 359.949C565.742 360.063 562.336 362.682 558.054 365.797C553.769 368.913 550.23 371.346 550.147 371.233C550.066 371.118 553.472 368.5 557.756 365.384C562.038 362.269 565.578 359.836 565.66 359.949Z" fill="white"/>
<path d="M566.83 355.796C566.91 355.911 563.942 358.136 560.201 360.764C556.46 363.394 553.361 365.432 553.282 365.316C553.201 365.2 556.169 362.977 559.911 360.346C563.651 357.719 566.75 355.681 566.83 355.796Z" fill="white"/>
<path d="M538.287 362.211C538.367 362.326 536.859 363.52 534.92 364.877C532.98 366.234 531.343 367.241 531.263 367.125C531.183 367.01 532.691 365.817 534.631 364.459C536.569 363.102 538.208 362.095 538.287 362.211Z" fill="white"/>
<path d="M540.249 358.325C540.336 358.435 538.615 359.92 536.408 361.64C534.2 363.359 532.341 364.663 532.255 364.553C532.169 364.442 533.889 362.957 536.097 361.237C538.304 359.518 540.163 358.213 540.249 358.325Z" fill="white"/>
<path d="M570.808 382.11C570.808 382.25 568.372 382.365 565.368 382.365C562.363 382.365 559.927 382.25 559.927 382.11C559.927 381.969 562.363 381.855 565.368 381.855C568.372 381.855 570.808 381.969 570.808 382.11Z" fill="white"/>
<path d="M503.606 447.063C503.601 447.088 503.168 447.033 502.412 446.806C501.658 446.584 500.594 446.126 499.42 445.328C498.246 444.535 496.995 443.348 495.961 441.769C494.926 440.196 494.149 438.199 493.978 436.011C493.843 433.818 494.333 431.731 495.138 430.028C495.942 428.318 497.016 426.967 498.069 426.016C499.119 425.062 500.108 424.46 500.826 424.133C501.541 423.802 501.962 423.686 501.97 423.71C502.032 423.818 500.308 424.341 498.314 426.279C497.323 427.236 496.315 428.565 495.562 430.226C494.808 431.879 494.355 433.881 494.484 435.974C494.649 438.064 495.376 439.984 496.353 441.514C497.329 443.051 498.514 444.227 499.628 445.035C501.872 446.673 503.652 446.948 503.606 447.063Z" fill="#FAFAFA"/>
<path d="M524.374 392.774C524.374 392.915 519.094 393.029 512.582 393.029C506.068 393.029 500.791 392.915 500.791 392.774C500.791 392.633 506.068 392.519 512.582 392.519C519.094 392.519 524.374 392.633 524.374 392.774Z" fill="white"/>
<path d="M418.065 102.99L409.185 83.8344C406.439 77.9096 399.433 75.3453 393.538 78.1043C387.642 80.8632 385.09 87.9019 387.835 93.8256L396.715 112.983C396.882 113.341 397.306 113.496 397.662 113.329L417.721 103.941C418.077 103.774 418.231 103.348 418.065 102.99Z" fill="#326144"/>
<path d="M77.7712 453.093H72.7683V360.685H77.7712V453.093Z" fill="#E1E1E1"/>
<path d="M80.3259 357.522C80.3259 360.32 78.0688 362.589 75.284 362.589C72.4993 362.589 70.2422 360.32 70.2422 357.522C70.2422 354.725 72.4993 352.456 75.284 352.456C78.0688 352.456 80.3259 354.725 80.3259 357.522Z" fill="#FF4F5B"/>
<path d="M177.189 453.093H172.186V360.685H177.189V453.093Z" fill="#E1E1E1"/>
<path d="M179.743 357.522C179.743 360.32 177.486 362.589 174.701 362.589C171.917 362.589 169.659 360.32 169.659 357.522C169.659 354.725 171.917 352.456 174.701 352.456C177.486 352.456 179.743 354.725 179.743 357.522Z" fill="#FF4F5B"/>
<path d="M186.661 392.645H58.4878V369.602H186.661V392.645Z" fill="#FF4F5B"/>
<path d="M72.9912 369.602L72.7683 369.983L59.6001 392.646H58.4875V369.602H72.9912Z" fill="#F5F5F5"/>
<path d="M105.388 369.602L91.9839 392.646H74.4697L79.7978 383.49L87.8735 369.602H105.388Z" fill="#F5F5F5"/>
<path d="M137.771 369.602L124.368 392.646H106.854L120.257 369.602H137.771Z" fill="#F5F5F5"/>
<path d="M170.154 369.607L156.747 392.645H139.236L152.642 369.607H170.154Z" fill="#F5F5F5"/>
<path d="M186.662 369.607V392.645H171.619L185.027 369.607H186.662Z" fill="#F5F5F5"/>
<path d="M186.661 428.242H58.4878V405.2H186.661V428.242Z" fill="#FF4F5B"/>
<path d="M72.9912 405.2L72.7683 405.582L59.6001 428.243H58.4875V405.2H72.9912Z" fill="#F5F5F5"/>
<path d="M105.388 405.2L91.9839 428.243H74.4697L79.7978 419.089L87.8735 405.2H105.388Z" fill="#F5F5F5"/>
<path d="M137.771 405.2L124.368 428.243H106.854L120.257 405.2H137.771Z" fill="#F5F5F5"/>
<path d="M170.154 405.205L156.747 428.244H139.236L152.642 405.205H170.154Z" fill="#F5F5F5"/>
<path d="M186.662 405.205V428.244H171.619L185.027 405.205H186.662Z" fill="#F5F5F5"/>
<path d="M683.063 453.465C683.063 453.607 541.522 453.72 366.961 453.72C192.341 453.72 50.8303 453.607 50.8303 453.465C50.8303 453.324 192.341 453.211 366.961 453.211C541.522 453.211 683.063 453.324 683.063 453.465Z" fill="#1A2E35"/>
</svg>
