<?xml version="1.0" standalone="no"?>
<!DOCTYPE svg PUBLIC "-//W3C//DTD SVG 20010904//EN"
 "http://www.w3.org/TR/2001/REC-SVG-20010904/DTD/svg10.dtd">
<svg version="1.0" xmlns="http://www.w3.org/2000/svg"
 width="168.000000pt" height="168.000000pt" viewBox="0 0 168.000000 168.000000"
 preserveAspectRatio="xMidYMid meet">

<g transform="translate(0.000000,168.000000) scale(0.100000,-0.100000)"
fill="#000000" stroke="none">
<path d="M463 1214 c-68 -34 -80 -129 -22 -178 46 -39 101 -36 145 8 52 52 44
128 -18 166 -39 24 -62 25 -105 4z"/>
<path d="M1153 1214 c-18 -9 -39 -31 -48 -51 -33 -69 18 -153 92 -153 68 0
112 42 113 105 0 47 -19 79 -60 100 -36 19 -57 19 -97 -1z"/>
<path d="M773 1152 c-32 -27 -155 -129 -273 -226 -220 -182 -251 -215 -229
-242 22 -26 55 -14 158 57 56 39 104 69 106 67 1 -1 10 -93 19 -203 20 -227
24 -254 48 -269 14 -8 22 -7 35 7 15 15 19 53 29 293 10 251 13 276 30 289 10
7 51 36 91 64 l71 50 89 -61 c48 -33 89 -62 91 -63 2 -2 8 -123 13 -269 5
-147 14 -278 19 -291 11 -28 41 -33 60 -10 7 9 19 103 31 236 10 122 21 224
23 226 2 3 51 -27 107 -67 113 -77 151 -87 157 -40 4 32 -5 40 -312 294 -190
157 -256 206 -277 206 -18 0 -47 -17 -86 -48z"/>
<path d="M744 796 c-3 -8 -4 -31 -2 -52 l3 -39 45 0 45 0 3 53 3 52 -46 0
c-30 0 -47 -5 -51 -14z"/>
<path d="M874 796 c-3 -8 -4 -31 -2 -52 3 -39 3 -39 51 -42 l47 -3 0 55 0 56
-45 0 c-30 0 -47 -5 -51 -14z"/>
<path d="M744 666 c-3 -8 -4 -31 -2 -52 l3 -39 45 0 45 0 3 53 3 52 -46 0
c-30 0 -47 -5 -51 -14z"/>
<path d="M874 666 c-3 -8 -4 -31 -2 -52 l3 -39 45 0 45 0 3 53 3 52 -46 0
c-30 0 -47 -5 -51 -14z"/>
<path d="M197 263 c-11 -10 -8 -161 2 -168 5 -3 35 -2 65 1 49 6 57 10 63 32
3 14 1 33 -4 42 -7 10 -7 22 -2 33 14 25 -5 53 -42 61 -41 8 -74 8 -82 -1z
m77 -29 c28 -11 18 -34 -14 -34 -23 0 -30 4 -30 20 0 20 15 25 44 14z m23 -80
c7 -19 -13 -34 -44 -34 -18 0 -23 6 -23 25 0 21 5 25 30 25 19 0 33 -6 37 -16z"/>
<path d="M360 181 c0 -83 2 -92 18 -89 11 2 18 14 20 36 3 28 7 32 32 32 35 0
60 23 60 54 0 33 -20 46 -79 53 l-51 6 0 -92z m74 53 c9 -3 16 -15 16 -25 0
-14 -7 -19 -29 -19 -25 0 -28 3 -23 25 5 26 10 29 36 19z"/>
<path d="M587 264 c-14 -14 -7 -24 18 -24 24 0 25 -2 25 -70 0 -40 4 -70 10
-70 6 0 13 0 18 0 4 0 9 30 12 67 5 62 7 68 28 71 13 2 21 9 19 15 -4 13 -118
22 -130 11z"/>
<path d="M794 262 c-13 -9 -69 -161 -61 -168 3 -3 15 4 26 15 28 28 74 27 94
-1 11 -17 18 -20 26 -12 9 8 3 31 -21 89 -33 78 -44 91 -64 77z m36 -94 c0 -4
-9 -8 -20 -8 -21 0 -24 8 -13 36 6 16 7 16 20 -2 7 -10 13 -21 13 -26z"/>
<path d="M918 264 c-9 -9 -11 -158 -2 -167 14 -13 34 7 34 34 0 24 4 29 26 29
41 0 64 18 64 49 0 16 -6 34 -14 40 -16 14 -98 26 -108 15z m66 -30 c27 -10
20 -44 -9 -44 -20 0 -25 5 -25 25 0 26 7 29 34 19z"/>
<path d="M1083 264 c-9 -4 -13 -31 -13 -85 0 -74 1 -79 23 -85 36 -8 100 -1
104 13 3 8 -12 13 -44 15 -41 3 -48 6 -51 26 -3 20 1 22 42 22 34 0 46 4 46
15 0 11 -12 15 -46 15 -38 0 -45 3 -42 18 2 12 15 18 46 20 57 4 50 26 -9 29
-24 1 -50 0 -56 -3z"/>
<path d="M1230 181 c0 -70 3 -92 13 -89 6 3 14 20 17 39 6 36 27 42 44 12 19
-34 48 -55 59 -44 8 8 5 19 -11 40 -18 25 -19 31 -7 41 16 13 20 65 6 74 -4 3
-34 8 -65 12 l-56 7 0 -92z m84 53 c35 -13 11 -44 -35 -44 -12 0 -19 7 -19 18
0 31 19 40 54 26z"/>
<path d="M1453 262 c-10 -6 -24 -37 -64 -139 -11 -30 6 -39 28 -13 23 26 74
27 91 0 6 -11 18 -17 26 -14 11 4 7 22 -19 87 -33 83 -41 92 -62 79z m26 -89
c1 -7 -6 -13 -14 -13 -16 0 -19 17 -8 46 6 16 7 16 14 -2 4 -10 8 -25 8 -31z"/>
</g>
</svg>
